<svg id="Flat" height="512" viewBox="0 0 512 512" width="512" xmlns="http://www.w3.org/2000/svg"><path d="m392 488h-272a48 48 0 0 1 -48-48v-368a48 48 0 0 1 48-48h224l96 96v320a48 48 0 0 1 -48 48z" fill="#cfd2fc"/><path d="m72 360h368a0 0 0 0 1 0 0v80a48 48 0 0 1 -48 48h-272a48 48 0 0 1 -48-48v-80a0 0 0 0 1 0 0z" fill="#5153ff"/><path d="m440 120h-48a48 48 0 0 1 -48-48v-48z" fill="#8690fa"/><path d="m264 115.556v70.6a16 16 0 1 1 -16 0v-70.6l-64 92.444 40 56h64l40-56z" fill="#8690fa"/><path d="m224 264h64v32h-64z" fill="#5153ff"/><g fill="#fff"><path d="m231.491 389.191a8 8 0 0 0 -14.982 0l-24 64a8 8 0 0 0 14.982 5.618l4.053-10.809h24.912l4.053 10.809a8 8 0 1 0 14.982-5.618zm-13.947 42.809 6.456-17.216 6.456 17.216z"/><path d="m312 400a8 8 0 0 0 0-16h-32a8 8 0 0 0 0 16h8v48h-8a8 8 0 0 0 0 16h32a8 8 0 0 0 0-16h-8v-48z"/></g></svg>