<svg id="Flat" height="512" viewBox="0 0 512 512" width="512" xmlns="http://www.w3.org/2000/svg"><path d="m392 488h-272a48 48 0 0 1 -48-48v-368a48 48 0 0 1 48-48h224l96 96v320a48 48 0 0 1 -48 48z" fill="#cfd2fc"/><path d="m72 360h368a0 0 0 0 1 0 0v80a48 48 0 0 1 -48 48h-272a48 48 0 0 1 -48-48v-80a0 0 0 0 1 0 0z" fill="#5153ff"/><g fill="#8690fa"><path d="m440 120h-48a48 48 0 0 1 -48-48v-48z"/><path d="m176 280a7.974 7.974 0 0 1 -5.657-2.343l-48-48a8 8 0 0 1 0-11.314l48-48a8 8 0 0 1 11.314 11.314l-42.344 42.343 42.344 42.343a8 8 0 0 1 -5.657 13.657z"/><path d="m336 280a8 8 0 0 1 -5.657-13.657l42.344-42.343-42.344-42.343a8 8 0 0 1 11.314-11.314l48 48a8 8 0 0 1 0 11.314l-48 48a7.974 7.974 0 0 1 -5.657 2.343z"/><path d="m223.992 280a8 8 0 0 1 -6.648-12.439l64-96a8 8 0 0 1 13.312 8.876l-64 96a7.992 7.992 0 0 1 -6.664 3.563z"/><circle cx="224" cy="184" r="16"/><circle cx="288" cy="264" r="16"/></g><path d="m199.49 389.191a8 8 0 0 0 -14.98 0l-24 64a8 8 0 1 0 14.98 5.618l4.054-10.809h24.912l4.054 10.809a8 8 0 1 0 14.98-5.618zm-13.946 42.809 6.456-17.216 6.456 17.216z" fill="#fff"/><path d="m264 400h16a8 8 0 0 0 0-16h-16a24 24 0 0 0 0 48 8 8 0 0 1 0 16h-16a8 8 0 0 0 0 16h16a24 24 0 0 0 0-48 8 8 0 0 1 0-16z" fill="#fff"/><path d="m328 384h-16a8 8 0 0 0 -8 8v64a8 8 0 0 0 16 0v-24h8a24 24 0 0 0 0-48zm0 32h-8v-16h8a8 8 0 0 1 0 16z" fill="#fff"/></svg>