<svg id="Flat" height="512" viewBox="0 0 512 512" width="512" xmlns="http://www.w3.org/2000/svg"><path d="m392 488h-272a48 48 0 0 1 -48-48v-368a48 48 0 0 1 48-48h224l96 96v320a48 48 0 0 1 -48 48z" fill="#cfd2fc"/><path d="m136 136h144v32h-144z" fill="#5153ff"/><path d="m72 360h368a0 0 0 0 1 0 0v80a48 48 0 0 1 -48 48h-272a48 48 0 0 1 -48-48v-80a0 0 0 0 1 0 0z" fill="#5153ff"/><path d="m440 120h-48a48 48 0 0 1 -48-48v-48z" fill="#8690fa"/><path d="m136 168h144v128h-144z" fill="#fff"/><g fill="#8690fa"><path d="m376 232v-32h-34.332a55.685 55.685 0 0 0 -4.4-10.641l24.271-24.271-22.627-22.627-24.271 24.271a55.685 55.685 0 0 0 -10.641-4.4v-26.332h-32v26.332a55.685 55.685 0 0 0 -10.641 4.4l-24.271-24.271-22.627 22.627 24.271 24.271a55.685 55.685 0 0 0 -4.4 10.641h-34.332v32h34.332a55.685 55.685 0 0 0 4.4 10.641l-24.271 24.271 22.627 22.627 24.271-24.271a55.685 55.685 0 0 0 10.641 4.4v26.332h32v-26.332a55.685 55.685 0 0 0 10.641-4.4l24.271 24.271 22.627-22.627-24.271-24.271a55.685 55.685 0 0 0 4.4-10.641zm-88 8a24 24 0 1 1 24-24 24 24 0 0 1 -24 24z"/><path d="m184 272h-16a8 8 0 0 1 0-16h16a8 8 0 0 1 0 16z"/><circle cx="168" cy="232" r="8"/><circle cx="168" cy="200" r="8"/></g><path d="m184 384h-16a8 8 0 0 0 -8 8v64a8 8 0 0 0 8 8h16a23.984 23.984 0 0 0 17.869-40 23.984 23.984 0 0 0 -17.869-40zm-8 16h8a8 8 0 0 1 0 16h-8zm8 48h-8v-16h8a8 8 0 0 1 0 16z" fill="#fff"/><path d="m344 384h-32a8 8 0 0 0 0 16h8v56a8 8 0 0 0 16 0v-56h8a8 8 0 0 0 0-16z" fill="#fff"/><path d="m263.491 389.191a8 8 0 0 0 -14.982 0l-24 64a8 8 0 0 0 14.982 5.618l4.053-10.809h24.912l4.053 10.809a8 8 0 0 0 14.982-5.618zm-13.947 42.809 6.456-17.216 6.456 17.216z" fill="#fff"/></svg>