<svg id="Flat" height="512" viewBox="0 0 512 512" width="512" xmlns="http://www.w3.org/2000/svg"><path d="m392 488h-272a48 48 0 0 1 -48-48v-368a48 48 0 0 1 48-48h224l96 96v320a48 48 0 0 1 -48 48z" fill="#cfd2fc"/><g fill="#8690fa"><path d="m288 280h-104a8 8 0 0 1 -8-8v-56h16v48h96z"/><path d="m280 200h96v96h-96z"/><path d="m136 136h96v96h-96z"/></g><path d="m280 200h96v32h-96z" fill="#5153ff"/><path d="m352 272h-48a8 8 0 0 1 0-16h48a8 8 0 0 1 0 16z" fill="#fff"/><path d="m136 136h96v32h-96z" fill="#5153ff"/><path d="m72 360h368a0 0 0 0 1 0 0v80a48 48 0 0 1 -48 48h-272a48 48 0 0 1 -48-48v-80a0 0 0 0 1 0 0z" fill="#5153ff"/><path d="m440 120h-48a48 48 0 0 1 -48-48v-48z" fill="#8690fa"/><path d="m208 208h-48a8 8 0 0 1 0-16h48a8 8 0 0 1 0 16z" fill="#fff"/><path d="m224 400a10.675 10.675 0 0 1 4.588 1.058 8 8 0 0 0 6.824-14.473 26.587 26.587 0 0 0 -11.412-2.585c-17.645 0-32 17.944-32 40s14.355 40 32 40a26.587 26.587 0 0 0 11.412-2.585 8 8 0 0 0 -6.824-14.473 10.675 10.675 0 0 1 -4.588 1.058c-8.673 0-16-10.99-16-24s7.327-24 16-24z" fill="#fff"/><path d="m320 408a8 8 0 0 0 -8-8v-8a8 8 0 0 0 -16 0v8h-16v-8a8 8 0 0 0 -16 0v8a8 8 0 0 0 0 16v16a8 8 0 0 0 0 16v8a8 8 0 0 0 16 0v-8h16v8a8 8 0 0 0 16 0v-8a8 8 0 0 0 0-16v-16a8 8 0 0 0 8-8zm-24 24h-16v-16h16z" fill="#fff"/></svg>