<svg id="Flat" height="512" viewBox="0 0 512 512" width="512" xmlns="http://www.w3.org/2000/svg"><path d="m392 488h-272a48 48 0 0 1 -48-48v-368a48 48 0 0 1 48-48h224l96 96v320a48 48 0 0 1 -48 48z" fill="#cfd2fc"/><path d="m72 360h368a0 0 0 0 1 0 0v80a48 48 0 0 1 -48 48h-272a48 48 0 0 1 -48-48v-80a0 0 0 0 1 0 0z" fill="#5153ff"/><g fill="#8690fa"><path d="m440 120h-48a48 48 0 0 1 -48-48v-48z"/><path d="m256 184a8 8 0 0 1 -8-8v-56a8 8 0 0 1 16 0v56a8 8 0 0 1 -8 8z"/><path d="m344 216h-56a8 8 0 0 1 0-16h56a8 8 0 0 1 0 16z"/><path d="m224 216h-56a8 8 0 0 1 0-16h56a8 8 0 0 1 0 16z"/><path d="m256 304a8 8 0 0 1 -8-8v-56a8 8 0 0 1 16 0v56a8 8 0 0 1 -8 8z"/></g><path d="m168 384a8 8 0 0 0 -8 8v64a8 8 0 0 0 8 8 40 40 0 0 0 0-80zm8 62.629v-45.258a24 24 0 0 1 0 45.258z" fill="#fff"/><path d="m360 416h-16a8 8 0 0 0 0 16h7.049c-2.252 9.217-8.236 16-15.049 16-8.673 0-16-10.99-16-24s7.327-24 16-24a10.675 10.675 0 0 1 4.588 1.058 8 8 0 0 0 6.824-14.473 26.587 26.587 0 0 0 -11.412-2.585c-17.645 0-32 17.944-32 40s14.355 40 32 40 32-17.944 32-40a8 8 0 0 0 -8-8z" fill="#fff"/><path d="m280.992 384.062a8 8 0 0 0 -8.93 6.946l-3.625 29-4.848-14.541a8 8 0 0 0 -15.178 0l-4.848 14.541-3.625-29a8 8 0 1 0 -15.876 1.984l8 64a8 8 0 0 0 15.527 1.538l8.411-25.23 8.411 25.232a8 8 0 0 0 7.589 5.468q.394 0 .793-.039a8 8 0 0 0 7.15-6.969l8-64a8 8 0 0 0 -6.951-8.93z" fill="#fff"/><path d="m224 176h64v64h-64z" fill="#8690fa"/><circle cx="256" cy="208" fill="#5153ff" r="8"/></svg>