<svg id="Flat" height="512" viewBox="0 0 512 512" width="512" xmlns="http://www.w3.org/2000/svg"><path d="m392 488h-272a48 48 0 0 1 -48-48v-368a48 48 0 0 1 48-48h224l96 96v320a48 48 0 0 1 -48 48z" fill="#cfd2fc"/><path d="m72 360h368a0 0 0 0 1 0 0v80a48 48 0 0 1 -48 48h-272a48 48 0 0 1 -48-48v-80a0 0 0 0 1 0 0z" fill="#5153ff"/><path d="m440 120h-48a48 48 0 0 1 -48-48v-48z" fill="#8690fa"/><path d="m368 166.66v114.68a14.671 14.671 0 0 1 -14.66 14.66h-194.68a14.671 14.671 0 0 1 -14.66-14.66v-114.68a14.673 14.673 0 0 1 14.66-14.66h194.68a14.673 14.673 0 0 1 14.66 14.66z" fill="#8690fa"/><path d="m363.17 292.21a14.575 14.575 0 0 1 -9.83 3.79h-194.68a14.575 14.575 0 0 1 -9.83-3.79l107.17-84.21z" fill="#b5bafc"/><g fill="#fff"><path d="m366.28 159.78-110.28 88.22-110.28-88.22a14.648 14.648 0 0 1 12.94-7.78h194.68a14.648 14.648 0 0 1 12.94 7.78z"/><path d="m200 400a8 8 0 0 0 0-16h-32a8 8 0 0 0 -8 8v64a8 8 0 0 0 8 8h32a8 8 0 0 0 0-16h-24v-16h8a8 8 0 0 0 0-16h-8v-16z"/><path d="m344 448h-24v-56a8 8 0 0 0 -16 0v64a8 8 0 0 0 8 8h32a8 8 0 0 0 0-16z"/><path d="m281.608 384.164a8 8 0 0 0 -8.961 4.685l-16.647 38.842-16.647-38.842a8 8 0 0 0 -15.353 3.151v64a8 8 0 0 0 16 0v-25.024l8.647 20.175a8 8 0 0 0 14.706 0l8.647-20.175v25.024a8 8 0 0 0 16 0v-64a8 8 0 0 0 -6.392-7.836z"/></g></svg>