<svg id="Flat" height="512" viewBox="0 0 512 512" width="512" xmlns="http://www.w3.org/2000/svg"><path d="m392 488h-272a48 48 0 0 1 -48-48v-368a48 48 0 0 1 48-48h224l96 96v320a48 48 0 0 1 -48 48z" fill="#cfd2fc"/><path d="m72 360h368a0 0 0 0 1 0 0v80a48 48 0 0 1 -48 48h-272a48 48 0 0 1 -48-48v-80a0 0 0 0 1 0 0z" fill="#5153ff"/><path d="m440 120h-48a48 48 0 0 1 -48-48v-48z" fill="#8690fa"/><path d="m344 216v-32h-34.332a55.685 55.685 0 0 0 -4.4-10.641l24.271-24.271-22.627-22.627-24.271 24.271a55.685 55.685 0 0 0 -10.641-4.4v-26.332h-32v26.332a55.685 55.685 0 0 0 -10.641 4.4l-24.271-24.271-22.627 22.627 24.271 24.271a55.685 55.685 0 0 0 -4.4 10.641h-34.332v32h34.332a55.685 55.685 0 0 0 4.4 10.641l-24.271 24.271 22.627 22.627 24.271-24.271a55.685 55.685 0 0 0 10.641 4.4v26.332h32v-26.332a55.685 55.685 0 0 0 10.641-4.4l24.271 24.271 22.627-22.627-24.271-24.271a55.685 55.685 0 0 0 4.4-10.641zm-88 8a24 24 0 1 1 24-24 24 24 0 0 1 -24 24z" fill="#8690fa"/><path d="m152 216h208v80h-208z" fill="#b5bafc"/><g fill="#fff"><path d="m288 256h-64a8 8 0 0 1 0-16h64a8 8 0 0 1 0 16z"/><path d="m208 400a8 8 0 0 0 0-16h-32a8 8 0 0 0 -8 8v64a8 8 0 0 0 8 8h32a8 8 0 0 0 0-16h-24v-16h8a8 8 0 0 0 0-16h-8v-16z"/><path d="m336 400a8 8 0 0 0 0-16h-32a8 8 0 0 0 -8 8v64a8 8 0 0 0 8 8h32a8 8 0 0 0 0-16h-24v-16h8a8 8 0 0 0 0-16h-8v-16z"/><path d="m275.578 384.845a8 8 0 0 0 -10.733 3.577l-8.845 17.69-8.845-17.69a8 8 0 0 0 -14.31 7.156l14.211 28.422-14.211 28.422a8 8 0 1 0 14.31 7.156l8.845-17.69 8.845 17.69a8 8 0 1 0 14.31-7.156l-14.211-28.422 14.211-28.422a8 8 0 0 0 -3.577-10.733z"/></g></svg>