<svg id="Flat" height="512" viewBox="0 0 512 512" width="512" xmlns="http://www.w3.org/2000/svg"><path d="m392 488h-272a48 48 0 0 1 -48-48v-368a48 48 0 0 1 48-48h224l96 96v320a48 48 0 0 1 -48 48z" fill="#cfd2fc"/><path d="m72 360h368a0 0 0 0 1 0 0v80a48 48 0 0 1 -48 48h-272a48 48 0 0 1 -48-48v-80a0 0 0 0 1 0 0z" fill="#5153ff"/><path d="m440 120h-48a48 48 0 0 1 -48-48v-48z" fill="#8690fa"/><rect fill="#8690fa" height="144" rx="28.262" width="208" x="152" y="152"/><g fill="#fff"><path d="m240 248v-48l48 24z"/><path d="m337.94 384.239a8 8 0 0 0 -9.7 5.821l-8.24 32.956-8.239-32.956a8 8 0 1 0 -15.522 3.88l16 64a8 8 0 0 0 15.522 0l16-64a8 8 0 0 0 -5.821-9.701z"/><path d="m272 448h-24v-56a8 8 0 0 0 -16 0v64a8 8 0 0 0 8 8h32a8 8 0 0 0 0-16z"/><path d="m208 384h-32a8 8 0 0 0 -8 8v64a8 8 0 0 0 16 0v-24h8a8 8 0 0 0 0-16h-8v-16h24a8 8 0 0 0 0-16z"/></g></svg>