<svg id="Flat" height="512" viewBox="0 0 512 512" width="512" xmlns="http://www.w3.org/2000/svg"><path d="m392 488h-272a48 48 0 0 1 -48-48v-368a48 48 0 0 1 48-48h224l96 96v320a48 48 0 0 1 -48 48z" fill="#cfd2fc"/><path d="m72 360h368a0 0 0 0 1 0 0v80a48 48 0 0 1 -48 48h-272a48 48 0 0 1 -48-48v-80a0 0 0 0 1 0 0z" fill="#5153ff"/><path d="m440 120h-48a48 48 0 0 1 -48-48v-48z" fill="#8690fa"/><path d="m256.012 304h-.012c-1.368 0-2.754-.027-4.119-.08a8 8 0 1 1 .623-15.988c1.159.045 2.335.068 3.5.068h.011a89.192 89.192 0 0 0 10.654-.639 8 8 0 0 1 1.918 15.885 105.36 105.36 0 0 1 -12.575.754zm-34-6.189a7.958 7.958 0 0 1 -2.832-.521 103.82 103.82 0 0 1 -15.13-7.179 8 8 0 1 1 8.006-13.853 87.619 87.619 0 0 0 12.79 6.069 8 8 0 0 1 -2.834 15.484zm75.195-3.074a8 8 0 0 1 -3.442-15.226 88.161 88.161 0 0 0 12.246-7.09 8 8 0 1 1 9.105 13.156 104.1 104.1 0 0 1 -14.478 8.382 7.97 7.97 0 0 1 -3.438.778zm-113.01-23.023a7.978 7.978 0 0 1 -5.985-2.688 104.641 104.641 0 0 1 -10.067-13.357 8 8 0 1 1 13.507-8.574 88.639 88.639 0 0 0 8.525 11.308 8 8 0 0 1 -5.98 13.311zm148.562-6.053a8 8 0 0 1 -6.387-12.81 88.313 88.313 0 0 0 7.579-11.966 8 8 0 1 1 14.162 7.447 104.227 104.227 0 0 1 -8.956 14.138 7.985 7.985 0 0 1 -6.402 3.191zm-169.976-34.591a8 8 0 0 1 -7.762-6.086 104.2 104.2 0 0 1 -2.681-16.516 8 8 0 1 1 15.947-1.288 88.255 88.255 0 0 0 2.27 13.973 8.009 8.009 0 0 1 -7.774 9.917zm188-7.674a8.007 8.007 0 0 1 -7.908-9.273 89.065 89.065 0 0 0 1.125-14.123v-.214a8 8 0 0 1 16 0v.214a105.119 105.119 0 0 1 -1.329 16.667 8 8 0 0 1 -7.889 6.733zm-188.035-38.265a8.009 8.009 0 0 1 -7.778-9.9 103.59 103.59 0 0 1 5.284-15.9 8 8 0 0 1 14.725 6.261 87.512 87.512 0 0 0 -4.466 13.434 8 8 0 0 1 -7.765 6.105zm184.272-7.731a8 8 0 0 1 -7.582-5.454 87.753 87.753 0 0 0 -5.581-13.006 8 8 0 1 1 14.143-7.471 103.866 103.866 0 0 1 6.6 15.385 8.006 8.006 0 0 1 -7.584 10.55zm-162.958-32.972a8 8 0 0 1 -5.99-13.3 105.136 105.136 0 0 1 12.045-11.6 8 8 0 0 1 10.145 12.372 88.911 88.911 0 0 0 -10.205 9.829 7.982 7.982 0 0 1 -5.995 2.699zm138.308-5.788a7.97 7.97 0 0 1 -5.53-2.221 88.855 88.855 0 0 0 -10.986-8.945 8 8 0 0 1 9.076-13.174 104.757 104.757 0 0 1 12.97 10.56 8 8 0 0 1 -5.532 13.78zm-100.551-20.374a8 8 0 0 1 -2.851-15.477 103.506 103.506 0 0 1 16.077-4.676 8 8 0 0 1 3.207 15.675 87.534 87.534 0 0 0 -13.585 3.951 7.993 7.993 0 0 1 -2.848.527zm60.738-2.544a8 8 0 0 1 -2.213-.313 87.821 87.821 0 0 0 -13.873-2.793 8 8 0 1 1 1.883-15.889 103.811 103.811 0 0 1 16.408 3.3 8 8 0 0 1 -2.2 15.691z" fill="#8690fa"/><g fill="#fff"><path d="m232 232v-64l64 32z"/><path d="m216 416h-16a8 8 0 0 0 0 16h7.049c-2.252 9.217-8.236 16-15.049 16-8.673 0-16-10.991-16-24s7.327-24 16-24a10.71 10.71 0 0 1 4.589 1.057 8 8 0 0 0 6.822-14.473 26.6 26.6 0 0 0 -11.411-2.584c-17.645 0-32 17.944-32 40s14.355 40 32 40 32-17.944 32-40a8 8 0 0 0 -8-8z"/><path d="m280 400a8 8 0 0 0 0-16h-32a8 8 0 0 0 0 16h8v48h-8a8 8 0 0 0 0 16h32a8 8 0 0 0 0-16h-8v-48z"/><path d="m344 384h-32a8 8 0 0 0 -8 8v64a8 8 0 0 0 16 0v-24h8a8 8 0 0 0 0-16h-8v-16h24a8 8 0 0 0 0-16z"/></g></svg>