<svg id="Flat" height="512" viewBox="0 0 512 512" width="512" xmlns="http://www.w3.org/2000/svg"><path d="m392 488h-272a48 48 0 0 1 -48-48v-368a48 48 0 0 1 48-48h224l96 96v320a48 48 0 0 1 -48 48z" fill="#cfd2fc"/><path d="m72 360h368a0 0 0 0 1 0 0v80a48 48 0 0 1 -48 48h-272a48 48 0 0 1 -48-48v-80a0 0 0 0 1 0 0z" fill="#5153ff"/><g fill="#8690fa"><path d="m440 120h-48a48 48 0 0 1 -48-48v-48z"/><path d="m200 264a7.976 7.976 0 0 1 -5.657-2.343l-48-48a8 8 0 0 1 0-11.314l48-48a8 8 0 0 1 11.314 11.314l-42.344 42.343 42.344 42.343a8 8 0 0 1 -5.657 13.657z"/><path d="m312 264a8 8 0 0 1 -5.657-13.657l42.344-42.343-42.344-42.343a8 8 0 0 1 11.314-11.314l48 48a8 8 0 0 1 0 11.314l-48 48a7.976 7.976 0 0 1 -5.657 2.343z"/><path d="m232 288a8.006 8.006 0 0 1 -7.59-10.532l48-144a8 8 0 1 1 15.178 5.06l-48 144a8 8 0 0 1 -7.588 5.472z"/></g><path d="m168 384a8 8 0 0 0 -8 8v24h-16v-24a8 8 0 0 0 -16 0v64a8 8 0 0 0 16 0v-24h16v24a8 8 0 0 0 16 0v-64a8 8 0 0 0 -8-8z" fill="#fff"/><path d="m232 384h-32a8 8 0 0 0 0 16h8v56a8 8 0 0 0 16 0v-56h8a8 8 0 0 0 0-16z" fill="#fff"/><path d="m313.838 384.214a8 8 0 0 0 -8.993 4.208l-16.845 33.689-16.845-33.689a8 8 0 0 0 -15.155 3.578v64a8 8 0 0 0 16 0v-30.111l8.845 17.689a8 8 0 0 0 14.31 0l8.845-17.689v30.111a8 8 0 0 0 16 0v-64a8 8 0 0 0 -6.162-7.786z" fill="#fff"/><path d="m376 448h-24v-56a8 8 0 0 0 -16 0v64a8 8 0 0 0 8 8h32a8 8 0 0 0 0-16z" fill="#fff"/></svg>