<svg id="Flat" height="512" viewBox="0 0 512 512" width="512" xmlns="http://www.w3.org/2000/svg"><path d="m392 488h-272a48 48 0 0 1 -48-48v-368a48 48 0 0 1 48-48h224l96 96v320a48 48 0 0 1 -48 48z" fill="#cfd2fc"/><path d="m72 360h368a0 0 0 0 1 0 0v80a48 48 0 0 1 -48 48h-272a48 48 0 0 1 -48-48v-80a0 0 0 0 1 0 0z" fill="#5153ff"/><path d="m440 120h-48a48 48 0 0 1 -48-48v-48z" fill="#8690fa"/><path d="m256 104a96 96 0 1 0 96 96 96 96 0 0 0 -96-96zm0 112a16 16 0 1 1 16-16 16 16 0 0 1 -16 16z" fill="#8690fa"/><path d="m256 272a72.081 72.081 0 0 1 -72-72 8 8 0 0 1 16 0 56.063 56.063 0 0 0 56 56 8 8 0 0 1 0 16z" fill="#cfd2fc"/><g fill="#fff"><path d="m200 400a8 8 0 0 0 0-16h-32a8 8 0 0 0 0 16h8v48h-8a8 8 0 0 0 0 16h32a8 8 0 0 0 0-16h-8v-48z"/><path d="m248 400h16a8 8 0 0 0 0-16h-16a24 24 0 0 0 0 48 8 8 0 0 1 0 16h-16a8 8 0 0 0 0 16h16a24 24 0 0 0 0-48 8 8 0 0 1 0-16z"/><path d="m320 384c-17.645 0-32 17.944-32 40s14.355 40 32 40 32-17.944 32-40-14.355-40-32-40zm0 64c-8.673 0-16-10.99-16-24s7.327-24 16-24 16 10.99 16 24-7.327 24-16 24z"/></g></svg>