<svg id="Flat" height="512" viewBox="0 0 512 512" width="512" xmlns="http://www.w3.org/2000/svg"><path d="m392 488h-272a48 48 0 0 1 -48-48v-368a48 48 0 0 1 48-48h224l96 96v320a48 48 0 0 1 -48 48z" fill="#cfd2fc"/><path d="m72 360h368a0 0 0 0 1 0 0v80a48 48 0 0 1 -48 48h-272a48 48 0 0 1 -48-48v-80a0 0 0 0 1 0 0z" fill="#5153ff"/><path d="m440 120h-48a48 48 0 0 1 -48-48v-48z" fill="#8690fa"/><path d="m316 248h-36v-64h60a20.023 20.023 0 0 1 20 20 44.049 44.049 0 0 1 -44 44zm-20-16h20a28.032 28.032 0 0 0 28-28 4 4 0 0 0 -4-4h-44z" fill="#5153ff"/><path d="m240 264a80 80 0 0 1 -80-80h160a80 80 0 0 1 -80 80z" fill="#8690fa"/><path d="m232 160h-24a8 8 0 0 1 0-16h24a8 8 0 0 0 0-16 24 24 0 0 1 0-48 8 8 0 0 1 0 16 8 8 0 0 0 0 16 24 24 0 0 1 0 48z" fill="#fff"/><path d="m280 160a8 8 0 0 1 0-16 8 8 0 0 0 0-16 8 8 0 0 1 0-16 24 24 0 0 1 0 48z" fill="#fff"/><path d="m304 304h-128a8 8 0 0 1 0-16h128a8 8 0 0 1 0 16z" fill="#5153ff"/><g fill="#fff"><path d="m263.491 389.191a8 8 0 0 0 -14.982 0l-24 64a8 8 0 0 0 14.982 5.618l4.053-10.809h24.912l4.053 10.809a8 8 0 0 0 14.981-5.618zm-13.947 42.809 6.456-17.216 6.456 17.216z"/><path d="m331.107 431.792a24 24 0 0 0 -3.107-47.792h-16a8 8 0 0 0 -8 8v64a8 8 0 0 0 16 0v-12.686l18.343 18.343a8 8 0 0 0 11.314-11.314zm-11.107-31.792h8a8 8 0 0 1 0 16h-8z"/><path d="m200 384a8 8 0 0 0 -8 8v48a8 8 0 0 1 -16 0 8 8 0 0 0 -16 0 24 24 0 0 0 48 0v-48a8 8 0 0 0 -8-8z"/></g></svg>