<svg id="Flat" height="512" viewBox="0 0 512 512" width="512" xmlns="http://www.w3.org/2000/svg"><path d="m392 488h-272a48 48 0 0 1 -48-48v-368a48 48 0 0 1 48-48h224l96 96v320a48 48 0 0 1 -48 48z" fill="#cfd2fc"/><path d="m72 360h368a0 0 0 0 1 0 0v80a48 48 0 0 1 -48 48h-272a48 48 0 0 1 -48-48v-80a0 0 0 0 1 0 0z" fill="#5153ff"/><path d="m440 120h-48a48 48 0 0 1 -48-48v-48z" fill="#8690fa"/><path d="m344 216v-32h-32v32h-50.1a64 64 0 1 0 0 32h98.1l16-32zm-144 32a16 16 0 1 1 16-16 16 16 0 0 1 -16 16z" fill="#8690fa"/><g fill="#fff"><path d="m328 384h-16a8 8 0 0 0 -8 8v64a8 8 0 0 0 8 8h16a23.984 23.984 0 0 0 17.869-40 23.984 23.984 0 0 0 -17.869-40zm-8 16h8a8 8 0 0 1 0 16h-8zm8 48h-8v-16h8a8 8 0 0 1 0 16z"/><path d="m248 384a8 8 0 0 0 -8 8v64a8 8 0 0 0 8 8 40 40 0 0 0 0-80zm8 62.629v-45.258a24 24 0 0 1 0 45.258z"/><path d="m217.838 384.214a8 8 0 0 0 -8.993 4.208l-16.845 33.689-16.845-33.689a8 8 0 0 0 -15.155 3.578v64a8 8 0 0 0 16 0v-30.111l8.845 17.689a8 8 0 0 0 14.31 0l8.845-17.689v30.111a8 8 0 0 0 16 0v-64a8 8 0 0 0 -6.162-7.786z"/></g></svg>