<svg id="Flat" height="512" viewBox="0 0 512 512" width="512" xmlns="http://www.w3.org/2000/svg"><path d="m392 488h-272a48 48 0 0 1 -48-48v-368a48 48 0 0 1 48-48h224l96 96v320a48 48 0 0 1 -48 48z" fill="#cfd2fc"/><path d="m72 360h368a0 0 0 0 1 0 0v80a48 48 0 0 1 -48 48h-272a48 48 0 0 1 -48-48v-80a0 0 0 0 1 0 0z" fill="#5153ff"/><path d="m440 120h-48a48 48 0 0 1 -48-48v-48z" fill="#8690fa"/><circle cx="256" cy="200" fill="#8690fa" r="96"/><g fill="#fff"><path d="m232 232v-64l64 32z"/><path d="m216 384a7.979 7.979 0 0 0 -5.657 2.343l-18.343 18.344-18.343-18.344a8 8 0 0 0 -13.657 5.657v64a8 8 0 0 0 16 0v-44.687l10.343 10.344a8 8 0 0 0 11.314 0l10.343-10.343v44.686a8 8 0 0 0 16 0v-64a8 8 0 0 0 -8-8z"/><path d="m264 384h-16a8 8 0 0 0 -8 8v64a8 8 0 0 0 16 0v-24h8a24 24 0 0 0 0-48zm0 32h-8v-16h8a8 8 0 0 1 0 16z"/><path d="m344 384a8 8 0 0 0 -8 8v24h-16v-24a8 8 0 0 0 -16 0v32a8 8 0 0 0 8 8h24v24a8 8 0 0 0 16 0v-64a8 8 0 0 0 -8-8z"/></g></svg>