<svg id="Flat" height="512" viewBox="0 0 512 512" width="512" xmlns="http://www.w3.org/2000/svg"><path d="m392 488h-272a48 48 0 0 1 -48-48v-368a48 48 0 0 1 48-48h224l96 96v320a48 48 0 0 1 -48 48z" fill="#cfd2fc"/><path d="m72 360h368a0 0 0 0 1 0 0v80a48 48 0 0 1 -48 48h-272a48 48 0 0 1 -48-48v-80a0 0 0 0 1 0 0z" fill="#5153ff"/><g fill="#8690fa"><path d="m440 120h-48a48 48 0 0 1 -48-48v-48z"/><path d="m192 272a7.976 7.976 0 0 1 -5.657-2.343l-48-48a8 8 0 0 1 0-11.314l48-48a8 8 0 0 1 11.314 11.314l-42.344 42.343 42.344 42.343a8 8 0 0 1 -5.657 13.657z"/><path d="m320 272a8 8 0 0 1 -5.657-13.657l42.344-42.343-42.344-42.343a8 8 0 0 1 11.314-11.314l48 48a8 8 0 0 1 0 11.314l-48 48a7.974 7.974 0 0 1 -5.657 2.343z"/><circle cx="256" cy="280" r="8"/><path d="m256 256a8 8 0 0 1 -8-8v-32a8 8 0 0 1 8-8 24 24 0 1 0 -24-24 8 8 0 0 1 -16 0 40 40 0 1 1 48 39.2v24.8a8 8 0 0 1 -8 8z"/></g><path d="m320 384h-16a8 8 0 0 0 -8 8v64a8 8 0 0 0 16 0v-24h8a24 24 0 0 0 0-48zm0 32h-8v-16h8a8 8 0 0 1 0 16z" fill="#fff"/><path d="m192 384h-16a8 8 0 0 0 -8 8v64a8 8 0 0 0 16 0v-24h8a24 24 0 0 0 0-48zm0 32h-8v-16h8a8 8 0 0 1 0 16z" fill="#fff"/><path d="m272 384a8 8 0 0 0 -8 8v24h-16v-24a8 8 0 0 0 -16 0v64a8 8 0 0 0 16 0v-24h16v24a8 8 0 0 0 16 0v-64a8 8 0 0 0 -8-8z" fill="#fff"/></svg>