<svg id="Flat" height="512" viewBox="0 0 512 512" width="512" xmlns="http://www.w3.org/2000/svg"><path d="m392 488h-272a48 48 0 0 1 -48-48v-368a48 48 0 0 1 48-48h224l96 96v320a48 48 0 0 1 -48 48z" fill="#cfd2fc"/><path d="m352 176v120c0-13.25-21.49-24-48-24-16.7 0-31.4 4.27-40 10.74-5.06 3.8-8 8.36-8 13.26 0-4.9-2.94-9.46-8-13.26-8.6-6.47-23.3-10.74-40-10.74-26.51 0-48 10.75-48 24v-120c0-13.25 21.49-24 48-24 16.7 0 31.4 4.27 40 10.74 5.06 3.8 8 8.36 8 13.26 0-4.9 2.94-9.46 8-13.26 8.6-6.47 23.3-10.74 40-10.74 26.51 0 48 10.75 48 24z" fill="#8690fa"/><path d="m72 360h368a0 0 0 0 1 0 0v80a48 48 0 0 1 -48 48h-272a48 48 0 0 1 -48-48v-80a0 0 0 0 1 0 0z" fill="#5153ff"/><path d="m440 120h-48a48 48 0 0 1 -48-48v-48z" fill="#8690fa"/><path d="m264 162.74v120c-5.06 3.8-8 8.36-8 13.26 0-4.9-2.94-9.46-8-13.26v-120c5.06 3.8 8 8.36 8 13.26 0-4.9 2.94-9.46 8-13.26z" fill="#5153ff"/><g fill="#fff"><path d="m320 384h-16a8 8 0 0 0 -8 8v64a8 8 0 0 0 8 8h16a23.984 23.984 0 0 0 17.869-40 23.984 23.984 0 0 0 -17.869-40zm-8 16h8a8 8 0 0 1 0 16h-8zm8 48h-8v-16h8a8 8 0 0 1 0 16z"/><path d="m192 384h-16a8 8 0 0 0 -8 8v64a8 8 0 0 0 16 0v-24h8a24 24 0 0 0 0-48zm0 32h-8v-16h8a8 8 0 0 1 0 16z"/><path d="m272 384a8 8 0 0 0 -8 8v48a8 8 0 0 1 -16 0v-48a8 8 0 0 0 -16 0v48a24 24 0 0 0 48 0v-48a8 8 0 0 0 -8-8z"/></g></svg>