<svg id="Flat" height="512" viewBox="0 0 512 512" width="512" xmlns="http://www.w3.org/2000/svg"><path d="m392 488h-272a48 48 0 0 1 -48-48v-368a48 48 0 0 1 48-48h224l96 96v320a48 48 0 0 1 -48 48z" fill="#cfd2fc"/><path d="m72 360h368a0 0 0 0 1 0 0v80a48 48 0 0 1 -48 48h-272a48 48 0 0 1 -48-48v-80a0 0 0 0 1 0 0z" fill="#5153ff"/><path d="m440 120h-48a48 48 0 0 1 -48-48v-48z" fill="#8690fa"/><path d="m263.49 389.191a8 8 0 0 0 -14.98 0l-24 64a8 8 0 1 0 14.98 5.618l4.054-10.809h24.912l4.054 10.809a8 8 0 1 0 14.98-5.618zm-13.946 42.809 6.456-17.216 6.456 17.216z" fill="#fff"/><path d="m187.106 431.792a24 24 0 0 0 -3.106-47.792h-16a8 8 0 0 0 -8 8v64a8 8 0 0 0 16 0v-12.686l18.343 18.343a8 8 0 1 0 11.314-11.314zm-11.106-31.792h8a8 8 0 0 1 0 16h-8z" fill="#fff"/><path d="m331.106 431.792a24 24 0 0 0 -3.106-47.792h-16a8 8 0 0 0 -8 8v64a8 8 0 0 0 16 0v-12.686l18.343 18.343a8 8 0 0 0 11.314-11.314zm-11.106-31.792h8a8 8 0 0 1 0 16h-8z" fill="#fff"/><g fill="#8690fa"><path d="m120 208h-16a8 8 0 0 1 0-16h16a8 8 0 0 1 0 16z"/><path d="m184 208h-16a8 8 0 0 1 0-16h16a8 8 0 0 1 0 16z"/><path d="m248 208h-16a8 8 0 0 1 0-16h16a8 8 0 0 1 0 16z"/><path d="m312 208h-16a8 8 0 0 1 0-16h16a8 8 0 0 1 0 16z"/><path d="m376 208h-16a8 8 0 0 1 0-16h16a8 8 0 0 1 0 16z"/><path d="m120 240h-16a8 8 0 0 1 0-16h16a8 8 0 0 1 0 16z"/><path d="m184 240h-16a8 8 0 0 1 0-16h16a8 8 0 0 1 0 16z"/><path d="m248 240h-16a8 8 0 0 1 0-16h16a8 8 0 0 1 0 16z"/><path d="m312 240h-16a8 8 0 0 1 0-16h16a8 8 0 0 1 0 16z"/><path d="m376 240h-16a8 8 0 0 1 0-16h16a8 8 0 0 1 0 16z"/><path d="m440 240h-16a8 8 0 0 1 0-16h16z"/></g><path d="m72 208h16a8 8 0 0 1 0 16h-16z" fill="#5153ff"/><path d="m152 224h-16a8 8 0 0 1 0-16h16a8 8 0 0 1 0 16z" fill="#5153ff"/><path d="m216 224h-16a8 8 0 0 1 0-16h16a8 8 0 0 1 0 16z" fill="#5153ff"/><path d="m280 224h-16a8 8 0 0 1 0-16h16a8 8 0 0 1 0 16z" fill="#5153ff"/><path d="m344 224h-16a8 8 0 0 1 0-16h16a8 8 0 0 1 0 16z" fill="#5153ff"/><path d="m408 224h-16a8 8 0 0 1 0-16h16a8 8 0 0 1 0 16z" fill="#5153ff"/><path d="m440 208h-16a8 8 0 0 1 0-16h16z" fill="#8690fa"/></svg>