<svg id="Flat" height="512" viewBox="0 0 512 512" width="512" xmlns="http://www.w3.org/2000/svg"><path d="m392 488h-272a48 48 0 0 1 -48-48v-368a48 48 0 0 1 48-48h224l96 96v320a48 48 0 0 1 -48 48z" fill="#cfd2fc"/><path d="m144 160h224v128h-224z" fill="#5153ff"/><path d="m216 200h152v88h-152z" fill="#8690fa"/><path d="m72 360h368a0 0 0 0 1 0 0v80a48 48 0 0 1 -48 48h-272a48 48 0 0 1 -48-48v-80a0 0 0 0 1 0 0z" fill="#5153ff"/><path d="m440 120h-48a48 48 0 0 1 -48-48v-48z" fill="#8690fa"/><g fill="#fff"><path d="m272 448h-24v-56a8 8 0 0 0 -16 0v64a8 8 0 0 0 8 8h32a8 8 0 0 0 0-16z"/><path d="m211.578 384.845a8 8 0 0 0 -10.733 3.577l-8.845 17.69-8.845-17.69a8 8 0 0 0 -14.31 7.156l14.211 28.422-14.211 28.422a8 8 0 1 0 14.31 7.156l8.845-17.69 8.845 17.69a8 8 0 1 0 14.31-7.156l-14.211-28.422 14.211-28.422a8 8 0 0 0 -3.577-10.733z"/><path d="m320 400h16a8 8 0 0 0 0-16h-16a24 24 0 0 0 0 48 8 8 0 0 1 0 16h-16a8 8 0 0 0 0 16h16a24 24 0 0 0 0-48 8 8 0 0 1 0-16z"/><path d="m144 192h224v16h-224z"/><path d="m144 240h224v16h-224z"/><path d="m208 160h16v128h-16z"/><path d="m288 160h16v128h-16z"/></g></svg>