<svg id="Flat" height="512" viewBox="0 0 512 512" width="512" xmlns="http://www.w3.org/2000/svg"><path d="m392 488h-272a48 48 0 0 1 -48-48v-368a48 48 0 0 1 48-48h224l96 96v320a48 48 0 0 1 -48 48z" fill="#cfd2fc"/><path d="m72 360h368a0 0 0 0 1 0 0v80a48 48 0 0 1 -48 48h-272a48 48 0 0 1 -48-48v-80a0 0 0 0 1 0 0z" fill="#5153ff"/><path d="m440 120h-48a48 48 0 0 1 -48-48v-48z" fill="#8690fa"/><path d="m184 160v96l72 40 72-40v-96z" fill="#5153ff"/><g fill="#fff"><path d="m184 160v96l72 40v-136z"/><path d="m192 384h-16a8 8 0 0 0 0 16h16a8 8 0 0 1 0 16h-16a8 8 0 0 0 0 16h16a8 8 0 0 1 0 16h-16a8 8 0 0 0 0 16h16a23.988 23.988 0 0 0 17.874-40 23.988 23.988 0 0 0 -17.874-40z"/><path d="m240 384a8 8 0 0 0 -8 8v64a8 8 0 0 0 8 8 40 40 0 0 0 0-80zm8 62.629v-45.258a24 24 0 0 1 0 45.258z"/><path d="m320 400h16a8 8 0 0 0 0-16h-16a24 24 0 0 0 0 48 8 8 0 0 1 0 16h-16a8 8 0 0 0 0 16h16a24 24 0 0 0 0-48 8 8 0 0 1 0-16z"/></g><path d="m328 160-72-40-72 40 72 40z" fill="#8690fa"/></svg>