<svg id="Flat" height="512" viewBox="0 0 512 512" width="512" xmlns="http://www.w3.org/2000/svg"><path d="m392 488h-272a48 48 0 0 1 -48-48v-368a48 48 0 0 1 48-48h224l96 96v320a48 48 0 0 1 -48 48z" fill="#cfd2fc"/><path d="m72 360h368a0 0 0 0 1 0 0v80a48 48 0 0 1 -48 48h-272a48 48 0 0 1 -48-48v-80a0 0 0 0 1 0 0z" fill="#5153ff"/><path d="m440 120h-48a48 48 0 0 1 -48-48v-48z" fill="#8690fa"/><path d="m176 136h64v64h-64z" fill="#5153ff"/><path d="m272 136h64v64h-64z" fill="#8690fa"/><path d="m176 232h64v64h-64z" fill="#8690fa"/><path d="m272 232h64v64h-64z" fill="#5153ff"/><g fill="#fff"><path d="m328 384h-16a8 8 0 0 0 -8 8v64a8 8 0 0 0 16 0v-24h8a24 24 0 0 0 0-48zm0 32h-8v-16h8a8 8 0 0 1 0 16z"/><path d="m264 384h-16a8 8 0 0 0 -8 8v64a8 8 0 0 0 16 0v-24h8a24 24 0 0 0 0-48zm0 32h-8v-16h8a8 8 0 0 1 0 16z"/><path d="m223.991 455.827c0-.164-.011-.327-.025-.492-.009-.117-.022-.232-.037-.347-.018-.136-.038-.272-.062-.408s-.057-.288-.091-.43c-.025-.1-.051-.209-.08-.314-.047-.167-.1-.331-.158-.494-.017-.05-.029-.1-.048-.151l-24-64a8 8 0 0 0 -14.98 0l-24 64a8 8 0 1 0 14.98 5.618l4.054-10.809h24.912l4.054 10.809c.009.024.023.046.033.07a7.836 7.836 0 0 0 .48 1.029c.028.049.059.095.087.144a7.891 7.891 0 0 0 .54.8c.044.058.084.118.13.174a8.078 8.078 0 0 0 .694.75c.067.064.135.124.2.185a8.013 8.013 0 0 0 .771.614c.019.013.036.029.056.042a8.028 8.028 0 0 0 .932.538l.183.088a7.941 7.941 0 0 0 2.045.637c.09.015.179.029.269.041a8.125 8.125 0 0 0 .992.075c.025 0 .05.006.075.006.259 0 .519-.016.78-.042.069-.006.136-.019.2-.027.176-.022.352-.046.527-.08.116-.023.23-.051.344-.079s.245-.058.367-.094c.139-.04.275-.086.411-.133.058-.021.116-.035.174-.057.036-.013.069-.032.106-.046.162-.063.32-.133.478-.207.091-.043.182-.085.271-.131.133-.068.262-.142.391-.218.106-.063.212-.125.314-.191s.2-.139.3-.211c.117-.084.233-.168.345-.257.081-.066.158-.135.237-.2.117-.1.234-.2.345-.313.072-.071.14-.146.21-.22.105-.111.21-.222.308-.339.074-.088.142-.179.212-.27.084-.109.168-.216.246-.329s.147-.226.219-.341c.061-.1.124-.2.18-.3.075-.133.142-.269.208-.406.045-.091.092-.182.133-.275.063-.143.119-.289.173-.436.036-.1.074-.191.106-.289.046-.138.085-.279.123-.421.031-.114.063-.229.089-.346s.049-.248.07-.373c.025-.142.049-.284.066-.428.012-.105.02-.212.029-.318.013-.166.022-.331.025-.5 0-.043.006-.084.006-.126.01-.057.002-.114.001-.172zm-38.447-23.827 6.456-17.216 6.456 17.216z"/></g></svg>