<svg height="512" viewBox="0 0 512 512" width="512" xmlns="http://www.w3.org/2000/svg">
    <path d="M392 488H120a48 48 0 0 1-48-48V72a48 48 0 0 1 48-48h224l96 96v320a48 48 0 0 1-48 48z" fill="#cfd2fc" />
    <g fill="#8690fa">
        <path d="M288 280H184a8 8 0 0 1-8-8v-56h16v48h96z" />
        <path d="M280 200h96v96h-96zm-144-64h96v96h-96z" />
    </g>
    <path d="M280 200h96v32h-96z" fill="#5153ff" />
    <path d="M352 272h-48a8 8 0 0 1 0-16h48a8 8 0 0 1 0 16z" fill="#fff" />
    <path d="M136 136h96v32h-96zM72 360h368v80a48 48 0 0 1-48 48H120a48 48 0 0 1-48-48v-80z" fill="#5153ff" />
    <path d="M440 120h-48a48 48 0 0 1-48-48V24z" fill="#8690fa" />
    <path d="M208 208h-48a8 8 0 0 1 0-16h48a8 8 0 0 1 0 16zm56 192a10.675 10.675 0 0 1 4.588 1.058 8 8 0 0 0 6.824-14.473A26.587 26.587 0 0 0 264 384c-17.645 0-32 17.944-32 40s14.355 40 32 40a26.587 26.587 0 0 0 11.412-2.585 8 8 0 0 0-6.824-14.473A10.675 10.675 0 0 1 264 448c-8.673 0-16-10.99-16-24s7.327-24 16-24z" fill="#fff" />
</svg>