<svg id="Flat" height="512" viewBox="0 0 512 512" width="512" xmlns="http://www.w3.org/2000/svg">
  <path d="m392 488h-272a48 48 0 0 1 -48-48v-368a48 48 0 0 1 48-48h224l96 96v320a48 48 0 0 1 -48 48z" fill="#cfd2fc"/>
  <path d="m72 360h368a0 0 0 0 1 0 0v80a48 48 0 0 1 -48 48h-272a48 48 0 0 1 -48-48v-80a0 0 0 0 1 0 0z" fill="#5153ff"/>
  <path d="m440 120h-48a48 48 0 0 1 -48-48v-48z" fill="#8690fa"/>


  <g transform="translate(120.000000,340.000000) scale(0.081250,-0.081250)"
fill="#8690fa" stroke="none">
<path fill="#5153ff" d="M1090 3066 c-43 -15 -76 -62 -85 -119 -17 -119 -25 -135 -63 -148
-21 -6 -67 -25 -104 -41 l-66 -30 -82 56 c-88 60 -134 71 -175 42 -28 -19
-121 -112 -139 -138 -31 -44 -21 -91 39 -178 30 -44 55 -83 55 -85 0 -2 -13
-32 -29 -67 -16 -35 -35 -80 -42 -100 -13 -39 -29 -46 -146 -63 -98 -15 -137
-76 -130 -205 6 -128 34 -155 186 -182 l74 -13 34 -85 c19 -47 39 -89 44 -95
17 -17 10 -34 -46 -111 -46 -65 -55 -84 -55 -120 0 -40 6 -50 67 -115 111
-117 147 -122 270 -33 l75 53 47 -23 c25 -13 70 -31 99 -42 30 -10 58 -26 63
-36 5 -9 14 -51 20 -93 17 -114 71 -163 169 -153 l35 3 6 70 c3 39 13 87 22
107 24 57 100 133 153 153 35 13 44 21 38 34 -30 71 -36 101 -31 169 4 64 2
72 -12 66 -40 -17 -131 -34 -183 -34 -236 0 -438 160 -493 391 -20 85 -19 151
3 230 36 130 123 243 234 307 337 192 748 -47 748 -436 0 -51 -16 -134 -35
-183 -5 -14 4 -15 72 -11 61 3 89 0 129 -15 l51 -20 12 32 c38 105 152 184
268 186 67 1 73 6 73 56 0 97 -49 142 -168 157 -83 11 -97 19 -111 68 -7 23
-26 68 -42 99 l-28 56 60 87 c32 48 59 97 59 108 0 39 -33 88 -101 153 -62 58
-74 65 -110 65 -41 0 -58 -8 -147 -73 l-52 -38 -103 41 c-56 23 -105 44 -109
48 -4 4 -14 47 -22 96 -18 102 -41 135 -105 155 -49 14 -146 13 -191 -3z"/>
<path fill="#fff" d="M1107 2226 c-155 -58 -199 -259 -84 -384 50 -55 144 -79 231 -60 67
14 146 91 165 161 27 95 -12 202 -95 260 -49 34 -156 46 -217 23z"/>
<path d="M2129 1761 c-16 -16 -29 -40 -29 -53 0 -13 -6 -45 -13 -72 -13 -49
-13 -49 -87 -77 -41 -16 -81 -29 -88 -29 -7 0 -39 18 -69 40 -83 59 -109 56
-189 -24 -80 -80 -83 -106 -24 -189 22 -30 40 -61 40 -69 0 -7 -13 -47 -29
-88 -29 -74 -30 -75 -78 -87 -26 -7 -58 -13 -71 -13 -13 0 -37 -13 -53 -29
-27 -28 -29 -34 -29 -111 0 -45 5 -90 10 -101 15 -26 56 -45 115 -53 76 -11
70 -4 135 -162 7 -18 0 -34 -36 -85 -63 -89 -61 -114 15 -192 56 -58 63 -62
103 -61 33 1 56 10 96 39 58 41 57 41 162 3 l65 -24 13 -64 c27 -129 45 -144
160 -142 100 2 122 17 140 98 23 105 24 107 72 125 25 9 61 24 81 32 l37 16
58 -42 c47 -33 68 -42 101 -42 39 0 48 6 100 58 53 52 58 61 58 100 -1 33 -10
55 -43 101 l-41 58 16 37 c8 20 22 54 30 76 21 57 27 62 91 70 65 8 107 27
122 54 5 11 11 53 13 93 3 113 -14 132 -142 159 -62 14 -64 15 -78 54 -7 22
-20 54 -28 72 -22 46 -19 60 22 117 29 40 37 60 38 94 0 40 -5 48 -63 104 -59
57 -65 60 -102 55 -23 -3 -60 -20 -87 -39 -67 -49 -67 -48 -94 -34 -13 7 -48
21 -78 32 -59 21 -65 30 -81 119 -15 89 -37 105 -146 105 -81 0 -87 -1 -115
-29z m245 -541 c56 -27 97 -66 134 -128 24 -42 27 -57 27 -137 0 -80 -3 -95
-27 -137 -59 -99 -133 -147 -242 -155 -34 -3 -79 0 -102 6 -142 38 -243 203
-210 344 24 102 104 192 199 223 59 20 164 12 221 -16z"/>
</g>
  

<text textLength="250" stroke-width="5" stroke="#fff" font-size="85.1" x="132.4" y="459" fill="#FFF" font-weight="bold">
        CONF
</text>
  
</svg>
