<svg id="Flat" height="512" viewBox="0 0 512 512" width="512" xmlns="http://www.w3.org/2000/svg"><path d="m392 488h-272a48 48 0 0 1 -48-48v-368a48 48 0 0 1 48-48h224l96 96v320a48 48 0 0 1 -48 48z" fill="#cfd2fc"/><path d="m72 360h368a0 0 0 0 1 0 0v80a48 48 0 0 1 -48 48h-272a48 48 0 0 1 -48-48v-80a0 0 0 0 1 0 0z" fill="#5153ff"/><g fill="#8690fa"><path d="m440 120h-48a48 48 0 0 1 -48-48v-48z"/><circle cx="160" cy="184" r="8"/><circle cx="192" cy="184" r="8"/><circle cx="224" cy="184" r="8"/><circle cx="256" cy="184" r="8"/><circle cx="288" cy="184" r="8"/><circle cx="320" cy="184" r="8"/><circle cx="352" cy="184" r="8"/><circle cx="160" cy="152" r="8"/><circle cx="192" cy="152" r="8"/><circle cx="224" cy="152" r="8"/><circle cx="256" cy="152" r="8"/><circle cx="288" cy="152" r="8"/><circle cx="320" cy="152" r="8"/><circle cx="352" cy="152" r="8"/><circle cx="160" cy="216" r="8"/><circle cx="192" cy="216" r="8"/><circle cx="224" cy="216" r="8"/><circle cx="256" cy="216" r="8"/><circle cx="288" cy="216" r="8"/><circle cx="320" cy="216" r="8"/><circle cx="352" cy="216" r="8"/><circle cx="160" cy="248" r="8"/><circle cx="192" cy="248" r="8"/><circle cx="224" cy="248" r="8"/><circle cx="256" cy="248" r="8"/><circle cx="288" cy="248" r="8"/><circle cx="320" cy="248" r="8"/><circle cx="352" cy="248" r="8"/><circle cx="160" cy="280" r="8"/><circle cx="192" cy="280" r="8"/><circle cx="224" cy="280" r="8"/><circle cx="256" cy="280" r="8"/><circle cx="288" cy="280" r="8"/><circle cx="320" cy="280" r="8"/><circle cx="352" cy="280" r="8"/></g><path d="m271.491 389.191a8 8 0 0 0 -14.982 0l-24 64a8 8 0 0 0 14.982 5.618l4.053-10.809h24.912l4.054 10.809a8 8 0 1 0 14.98-5.618zm-13.947 42.809 6.456-17.216 6.456 17.216z" fill="#fff"/><path d="m352 384h-32a8 8 0 0 0 0 16h8v56a8 8 0 0 0 16 0v-56h8a8 8 0 0 0 0-16z" fill="#fff"/><path d="m176 384a8 8 0 0 0 -8 8v64a8 8 0 0 0 8 8 40 40 0 0 0 0-80zm8 62.629v-45.258a24 24 0 0 1 0 45.258z" fill="#fff"/></svg>