<svg id="Flat" height="512" viewBox="0 0 512 512" width="512" xmlns="http://www.w3.org/2000/svg"><path d="m392 488h-272a48 48 0 0 1 -48-48v-368a48 48 0 0 1 48-48h224l96 96v320a48 48 0 0 1 -48 48z" fill="#cfd2fc"/><path d="m72 360h368a0 0 0 0 1 0 0v80a48 48 0 0 1 -48 48h-272a48 48 0 0 1 -48-48v-80a0 0 0 0 1 0 0z" fill="#5153ff"/><path d="m440 120h-48a48 48 0 0 1 -48-48v-48z" fill="#8690fa"/><path d="m360 272a8 8 0 0 1 -8-8c0-57.346-43.065-104-96-104s-96 46.654-96 104a8 8 0 0 1 -16 0c0-66.168 50.243-120 112-120s112 53.832 112 120a8 8 0 0 1 -8 8z" fill="#8690fa"/><path d="m136 264h32v32h-32z" fill="#5153ff"/><path d="m344 264h32v32h-32z" fill="#5153ff"/><path d="m360 160h-208a8 8 0 0 1 0-16h208a8 8 0 0 1 0 16z" fill="#8690fa"/><path d="m240 136h32v32h-32z" fill="#5153ff"/><g fill="#fff"><path d="m320 400h16a8 8 0 0 0 0-16h-16a24 24 0 0 0 0 48 8 8 0 0 1 0 16h-16a8 8 0 0 0 0 16h16a24 24 0 0 0 0-48 8 8 0 0 1 0-16z"/><path d="m256 384h-16a8 8 0 0 0 -8 8v64a8 8 0 0 0 16 0v-24h8a24 24 0 0 0 0-48zm0 32h-8v-16h8a8 8 0 0 1 0 16z"/><path d="m208 400a8 8 0 0 0 0-16h-32a8 8 0 0 0 -8 8v64a8 8 0 0 0 8 8h32a8 8 0 0 0 0-16h-24v-16h8a8 8 0 0 0 0-16h-8v-16z"/></g></svg>