<svg height="512" viewBox="0 0 512 512" width="512" xmlns="http://www.w3.org/2000/svg">
    <path d="M 392 488 H 120 a 48 48 0 0 1 -48 -48 V 72 a 48 48 0 0 1 48 -48 h 224 l 96 96 v 320 a 48 48 0 0 1 -48 48 z" fill="#cfd2fc" />
    <path d="M 72 360 h 368 v 80 a 48 48 0 0 1 -48 48 H 120 a 48 48 0 0 1 -48 -48 v -80 z" fill="#5153ff" />
    <path d="M 440 115.1 h -48 C 365.5 115.1 344 94.7 344 69.5 V 24 z M 273.1 58.8 c 1.3 5.1 1.3 5.6 1.1 7.8 c -0.5 6.1 -3.5 11.3 -10.1 17.4 c -5.3 4.9 -12.4 9.8 -29.1 20.1 c -11.3 7 -17.3 11 -24 16 c -6 4.5 -8.7 6.9 -10.9 9.5 c -11.5 14.5 -0.5 32.4 33 53.3 c 5.1 3.2 13.4 7.8 13.6 7.7 c 0.1 -0.1 -1 -1.5 -2.4 -3.2 c -4 -4.8 -6.9 -8.8 -12.1 -16.7 c -5.5 -8.4 -7.9 -12.3 -9.3 -15.2 c -0.8 -1.7 -1 -2.5 -1 -4.7 c 0 -3.3 0.5 -4.9 2.6 -8.1 c 3 -4.5 6.9 -8.1 21.7 -19.7 c 16.4 -12.9 21 -16.8 25.9 -22.3 c 9.7 -10.8 12.2 -21.1 7.7 -31.7 c -1.2 -2.8 -4.1 -7.6 -5.8 -9.6 c -1 -1.1 -1.1 -1.2 -0.9 -0.5 z" fill="#8690fa" />
    <path d="M 322.6 106.7 c -23.2 2.7 -42.4 7.7 -53.3 14 c -3.5 2 -8.8 5.8 -11.6 8.3 c -5.7 5.2 -8.9 13.8 -7.7 20.4 c 0.8 4.4 2.9 7.6 10.7 16.1 c 5.1 5.6 8.1 9.5 8.8 11.7 c 0.5 1.7 0.5 4.5 -0.1 6.5 c -0.8 2.5 -3.3 5.9 -6.1 8.3 C 262.1 193 260.9 194 259.7 195.1 l -1.1 1 l 0.9 0.1 c 2.1 0.2 12.6 -3.4 17.1 -5.8 c 12 -6.4 16.7 -15.1 12.8 -23.7 c -1.1 -2.4 -2.6 -4.7 -8.5 -12.8 c -4.6 -6.3 -5.3 -7.8 -5.3 -11.4 c 0 -2.3 0.1 -3 0.8 -4.2 c 1.3 -2.3 4 -4.9 9.1 -8.5 c 8.9 -6.4 17.3 -11 37.8 -21 c 3.9 -1.9 5.5 -2.8 4.8 -2.8 c -0.2 0 -2.6 0.3 -5.5 0.6 z" fill="#ffffff" />
    <path d="M 199.1 195.6 c -9.5 0.4 -20.7 1.8 -27.8 3.3 c -12.6 2.7 -18.5 6.1 -18.5 10.8 c 0 2.9 1.8 4.7 6.8 6.9 c 4.7 2 12.2 3.8 21.3 5.1 c 8.7 1.2 10.9 1.3 37.5 1.3 c 32.2 0 35.4 -0.2 62.3 -3.3 c 9.8 -1.2 14.4 -1.9 16.8 -2.6 c 2.7 -0.9 14.2 -7.7 18.9 -11.2 c 1.8 -1.3 1.9 -1.3 -5 -0.4 c -9.7 1.3 -25.4 2.7 -40 3.6 c -15.4 0.9 -53.8 1.2 -67.7 0.4 c -5.3 -0.3 -11.4 -1.2 -13.4 -1.9 c -1.3 -0.5 -1.4 -0.6 -1.4 -1.5 c 0 -2.5 6.6 -5.4 20.4 -9 c 3 -0.8 5.5 -1.4 5.7 -1.5 c 0.6 -0.2 -10.8 -0.1 -15.8 0.2 z" fill="#8690fa" />
    <path d="M 340 195.5 c -1.1 0.1 -3 0.4 -4.1 0.7 c -2.4 0.6 -10.8 3.8 -11.2 4.2 c -0.3 0.4 0.7 0.5 5.9 0.7 c 7.3 0.2 10.9 1.3 15.5 4.7 c 2.2 1.7 3.1 2.5 4.1 4.2 c 1.3 2.1 1.3 2.1 1.3 5.6 c 0 3.2 -0.1 3.6 -1.3 6.4 c -1.5 3.5 -3 5.9 -5.7 9.2 c -5 6.1 -12.1 12 -21.6 18 c -5.5 3.5 -6.1 3.9 -5.2 3.9 c 1.8 0 13.5 -2.5 19.5 -4.2 c 23.1 -6.6 36.2 -20.3 34 -35.6 c -0.5 -3.7 -1.1 -5.6 -2.7 -8 c -2.7 -4.2 -9.4 -8.5 -14.7 -9.3 c -2.5 -0.4 -11.1 -0.6 -13.7 -0.4 z" fill="#515fff" />
    <path d="M 194.6 226 c -8.9 1.6 -18.7 7.8 -18.7 11.7 c 0 4.3 6.4 7.8 19.9 10.7 c 12.9 2.8 17.5 3.2 41.4 3.2 c 15.8 0 19.7 -0.1 23.9 -0.5 c 12.9 -1.2 27.1 -3.9 39.2 -7.3 c 2.4 -0.7 4.7 -1.4 5 -1.6 c 0.5 -0.3 0.3 -0.5 -2.6 -2.1 C 299.5 238.5 296.4 236.9 293.3 235.3 l -6.1 -3.1 l -7.4 1.5 c -8.5 1.8 -11.3 2.2 -16.7 2.8 c -7.4 0.8 -16.5 1 -32.1 0.9 c -12.7 -0.1 -15.8 -0.2 -18.3 -0.6 c -6.1 -0.9 -12.3 -2.9 -14.2 -4.4 c -1 -0.8 -1.1 -1 -1.1 -2.4 c 0 -1.3 0.2 -1.7 1.1 -2.9 l 1.1 -1.4 l -1.5 0 c -0.8 0 -2.4 0.2 -3.5 0.4 z" fill="#8690fa" />
    <path d="M 208.6 254.1 c -3.6 0.7 -6.5 1.8 -9.8 3.9 c -4.6 2.9 -6.8 7.5 -5 10.5 c 1.4 2.4 5.6 4.9 11 6.5 c 9.6 2.8 18.6 3.8 33.6 3.8 c 17.2 0 31.6 -1.6 44.6 -5 c 7.8 -2 16.6 -5.3 16.6 -6.3 c 0 -0.5 -4.3 -3.3 -11.9 -7.6 l -6.2 -3.5 l -4 1.1 c -11.5 3.2 -26.8 5.1 -41.4 5.1 c -18.1 0 -25.6 -2.5 -22.8 -7.5 c 0.3 -0.6 0.6 -1.2 0.6 -1.2 c 0 -0.2 -3.2 -0.1 -5.2 0.3 z" fill="#8690fa" />
    <path d="M 160.3 269.3 c -10.1 1.6 -19.6 6.3 -22.2 11 c -1.4 2.5 -1.3 4.4 0.4 7.4 c 2.9 5.2 8.6 8.9 18.9 12.4 c 27.8 9.5 79.6 12.8 128.9 8.3 c 29 -2.7 50.6 -7.7 62.6 -14.6 c 10.6 -6.1 13.3 -13.5 7 -19 c -1.4 -1.2 -4.5 -3.1 -6.6 -4.1 l -1 -0.4 l 0 3.5 c 0 3.4 0 3.6 -0.9 5.1 c -4.6 8 -23 13.8 -53.6 17.1 c -8.5 0.9 -13.9 1.2 -29.9 1.5 c -16.3 0.4 -35.1 0 -45.4 -0.8 c -26.9 -2.2 -43.6 -5.8 -49.6 -10.5 c -2.7 -2.1 -3.3 -3.7 -2.3 -5.5 c 1.2 -2.1 6.1 -4.7 10.2 -5.4 c 1.2 -0.2 4.4 -0.5 7.1 -0.7 s 5.8 -0.4 6.9 -0.4 l 2 -0.2 l -5.1 -2.6 l -5.2 -2.6 l -10 0 c -6.6 0 -10.8 0.1 -12.2 0.4 z" fill="#0000ff" />
    <path d="M 381.6 295.6 c -11.1 7.3 -27.3 13.7 -45.9 18.2 c -22.9 5.5 -48.1 8.3 -77.8 8.7 c -29 0.4 -56.5 -1.7 -87.2 -6.4 c -8.6 -1.3 -9.3 -1.4 -7.9 -0.8 c 1.2 0.5 13.2 3.7 19.5 5.2 c 34 8.1 76.3 11.3 113.8 8.5 c 21.2 -1.5 41.5 -5.1 57.2 -10.1 c 12.1 -3.8 23.7 -10.6 28.1 -16.5 c 1.8 -2.4 4.3 -8.8 3.4 -8.8 c -0.1 0 -1.6 0.9 -3.2 2 z" fill="#0000ff" />
    <path d="M 343.5 389.2 a 8 8 0 0 0 -15 0 l -24 64 a 8 8 0 0 0 15 5.6 l 4.1 -10.8 h 24.9 l 4.1 10.8 a 8 8 0 0 0 15 -5.6 z M 329.6 432 l 6.5 -17.2 l 6.5 17.2 z m -96.1 -42.8 a 8 8 0 0 0 -15 0 l -24 64 a 8 8 0 0 0 15 5.6 l 4.1 -10.8 h 24.9 l 4.1 10.8 a 8 8 0 0 0 15 -5.6 z M 219.6 432 l 6.5 -17.2 l 6.5 17.2 z m 81.3 -47.8 a 8 8 0 0 0 -9.7 5.8 L 283 423 l -8.2 -33 a 8 8 0 1 0 -15.5 3.9 l 16 64 a 8 8 0 0 0 15.5 0 l 16 -64 a 8 8 0 0 0 -5.8 -9.7 z M 180 384 a 8 8 0 0 0 -8 8 v 48 a 8 8 0 0 1 -16 0 a 8 8 0 0 0 -16 0 a 24 24 0 0 0 48 0 v -48 a 8 8 0 0 0 -8 -8 z" fill="#ffffff" />
</svg>