<svg id="Flat" height="512" viewBox="0 0 512 512" width="512" xmlns="http://www.w3.org/2000/svg">
  <path d="m392 488h-272a48 48 0 0 1 -48-48v-368a48 48 0 0 1 48-48h224l96 96v320a48 48 0 0 1 -48 48z" fill="#cfd2fc"/>
  <path d="m72 360h368a0 0 0 0 1 0 0v80a48 48 0 0 1 -48 48h-272a48 48 0 0 1 -48-48v-80a0 0 0 0 1 0 0z" fill="#5153ff"/>
    <g fill="#8690fa">
    <path d="m440 120h-48a48 48 0 0 1 -48-48v-48z"/>

<g transform="translate(190.000000,280.000000) scale(0.055111,-0.055111)"
fill="#8690fa" stroke="none">
<path d="M1605 2237 c-193 -51 -317 -219 -314 -427 1 -45 -4 -78 -16 -100 -41
-80 -198 -201 -332 -255 -97 -40 -192 -41 -286 -2 -211 87 -434 3 -534 -201
-26 -52 -28 -66 -28 -172 0 -103 3 -121 26 -170 62 -131 195 -225 335 -237 91
-7 159 8 252 59 62 33 83 40 132 39 151 0 402 -141 475 -266 18 -30 28 -68 35
-125 23 -199 152 -340 343 -373 171 -29 354 67 433 228 27 56 29 68 29 175 0
110 -2 119 -32 180 -36 73 -94 134 -168 177 -88 51 -121 128 -134 307 -15 208
17 350 92 409 129 101 184 193 194 322 14 182 -91 353 -257 416 -66 25 -181
32 -245 16z m218 -80 l49 -22 -84 -1 c-62 0 -95 -6 -130 -22 l-47 -21 6 -53
c7 -71 -17 -95 -97 -100 -55 -3 -55 -3 -78 -50 -28 -56 -39 -144 -23 -188 9
-27 9 -30 -3 -20 -24 19 -46 100 -46 166 0 160 118 301 280 333 58 12 113 5
173 -22z m-320 -676 c34 -16 69 -31 78 -34 26 -9 69 -107 84 -193 28 -157 12
-331 -39 -418 -31 -52 -147 -126 -200 -126 -87 0 -295 93 -404 180 -90 72
-116 117 -120 205 -4 66 -1 80 22 119 69 118 359 291 494 295 13 1 51 -12 85
-28z m-890 -94 l49 -22 -74 0 c-58 0 -85 -6 -131 -27 -52 -24 -57 -29 -48 -47
21 -38 13 -78 -21 -106 -27 -23 -38 -26 -70 -21 -30 5 -42 2 -57 -13 -40 -40
-64 -176 -41 -235 16 -44 2 -29 -26 27 -54 104 -31 243 56 350 86 103 252 146
363 94z m1224 -637 c27 -6 60 -18 75 -28 26 -17 26 -17 -45 -14 -57 2 -84 -2
-127 -20 l-55 -23 3 -55 c5 -72 -16 -93 -97 -100 -55 -5 -56 -6 -79 -52 -28
-55 -39 -144 -24 -187 17 -49 4 -36 -23 22 -82 175 34 399 234 453 58 16 79
16 138 4z"/>
</g>

    
    <path d="m152 224a8 8 0 0 1 0-16 8.009 8.009 0 0 0 8-8v-32a24.028 24.028 0 0 1 24-24 8 8 0 0 1 0 16 8.009 8.009 0 0 0 -8 8v32a24.028 24.028 0 0 1 -24 24z"/>
    <path d="m184 288a24.028 24.028 0 0 1 -24-24v-32a8.009 8.009 0 0 0 -8-8 8 8 0 0 1 0-16 24.028 24.028 0 0 1 24 24v32a8.009 8.009 0 0 0 8 8 8 8 0 0 1 0 16z"/>
    <path d="m328 288a8 8 0 0 1 0-16 8.009 8.009 0 0 0 8-8v-32a24.028 24.028 0 0 1 24-24 8 8 0 0 1 0 16 8.009 8.009 0 0 0 -8 8v32a24.028 24.028 0 0 1 -24 24z"/>
    <path d="m360 224a24.028 24.028 0 0 1 -24-24v-32a8.009 8.009 0 0 0 -8-8 8 8 0 0 1 0-16 24.028 24.028 0 0 1 24 24v32a8.009 8.009 0 0 0 8 8 8 8 0 0 1 0 16z"/>
  </g>


  <text textLength="250" stroke-width="5" stroke="#fff" font-size="85.1" x="132.4" y="453" fill="#FFF" font-weight="bold">
        JSON
</text>
</svg>
