<svg id="Flat" height="512" viewBox="0 0 512 512" width="512" xmlns="http://www.w3.org/2000/svg">
    <path d="m392 488h-272a48 48 0 0 1 -48-48v-368a48 48 0 0 1 48-48h224l96 96v320a48 48 0 0 1 -48 48z" fill="#cfd2fc" />
    <path d="m72 360h368a0 0 0 0 1 0 0v80a48 48 0 0 1 -48 48h-272a48 48 0 0 1 -48-48v-80a0 0 0 0 1 0 0z" fill="#5153ff" />
    <path d="m440 120h-48a48 48 0 0 1 -48-48v-48z" fill="#8690fa" />


    <g transform="translate(139.000000,340.000000) scale(0.111250,-0.111250)" fill="#8690fa" stroke="none">
        <path fill="#5153ff" d="M1785 1891 c-85 -39 -137 -119 -137 -212 0 -135 97 -231 233 -231
205 0 306 246 159 392 -69 70 -171 90 -255 51z" />
        <path d="M830 1766 c-117 -26 -212 -68 -316 -142 -272 -192 -392 -564 -285
-884 44 -130 99 -220 195 -316 142 -142 318 -222 511 -231 337 -17 626 155
769 458 56 117 70 186 70 334 0 105 -4 145 -22 208 -79 277 -294 490 -567 562
-84 23 -274 28 -355 11z m556 -302 c68 -41 107 -108 112 -188 3 -52 0 -69 -25
-116 -65 -125 -220 -167 -334 -90 -112 75 -140 216 -66 327 70 103 207 133
313 67z" />
    </g>

    <text textLength="220" stroke-width="6" stroke="#fff" font-size="100.1" x="147.4" y="459" fill="#FFF" font-weight="bold">
        LUA
</text>

</svg>
