<svg height="512" viewBox="0 0 512 512" width="512" xmlns="http://www.w3.org/2000/svg">
    <path d="M392 488H120a48 48 0 0 1-48-48V72a48 48 0 0 1 48-48h224l96 96v320a48 48 0 0 1-48 48z" fill="#cfd2fc" />
    <path d="M72 360h368v80a48 48 0 0 1-48 48H120a48 48 0 0 1-48-48v-80z" fill="#5153ff" />
    <path d="M440 120h-48a48 48 0 0 1-48-48V24z" fill="#8690fa" />
    <g fill="#8690fa">
        <path d="M133.32 134.84c-2.275 1.495-4.485 3.705-5.98 5.98l-2.34 3.575v171.21l2.34 3.575c1.495 2.275 3.705 4.485 5.98 5.98l3.575 2.34h236.21l3.575-2.34c2.275-1.495 4.485-3.705 5.98-5.98l2.34-3.575v-171.21l-2.34-3.575c-1.495-2.275-3.705-4.485-5.98-5.98l-3.575-2.34h-236.21l-3.575 2.34zM366.15 230v78.65h-222.3v-157.3h222.3V230z" />
        <path d="M162.05 230v51.35h17.55l.065-35.945c0-19.695.26-35.295.585-34.58.26.715 1.56 3.9 2.925 7.15 1.3 3.185 2.665 6.435 2.925 7.15.585 1.43 6.11 14.43 7.41 17.55.455 1.04 1.43 3.38 2.21 5.2 1.105 2.86 5.135 12.675 6.63 16.25.325.715 1.495 3.51 2.6 6.175s2.21 5.33 2.535 5.85c.39.78 2.08 1.04 7.475 1.17 6.175.13 6.955.065 7.28-.975.195-.65.78-2.08 1.235-3.12.455-1.105 2.015-4.875 3.51-8.45 1.56-3.575 3.12-7.41 3.575-8.45.78-1.69 2.73-6.5 4.355-10.4.26-.715 1.885-4.55 3.51-8.45 1.625-3.965 3.965-9.49 5.135-12.35 1.235-2.86 3.185-7.54 4.355-10.4l2.21-5.2.195 35.88.13 35.945H268v-102.7h-22.1l-1.235 2.73c-.715 1.56-2.34 5.395-3.64 8.645-1.365 3.185-2.795 6.695-3.25 7.8-.455 1.04-1.495 3.575-2.275 5.525s-1.82 4.42-2.275 5.525c-.52 1.04-1.69 3.835-2.6 6.175s-1.95 4.81-2.275 5.525-1.235 2.925-2.015 4.875a107.811 107.811 0 0 1-2.535 6.175c-.975 2.21-3.185 7.475-5.2 12.35-.26.715-1.235 3.055-2.145 5.2l-1.69 3.9-1.04-2.6c-.585-1.43-1.95-4.81-3.055-7.475s-3.185-7.67-4.55-11.05c-1.43-3.38-2.925-7.085-3.38-8.125a234.99 234.99 0 0 0-2.21-5.2c-.715-1.82-2.405-5.915-3.705-9.1-3.185-7.67-3.185-7.735-5.2-12.675-.975-2.34-2.275-5.395-2.925-6.825s-1.95-4.485-2.86-6.825l-1.625-4.225-11.05-.195-11.115-.13V230zM307 213.685v35.1l-7.02-7.15c-3.9-3.9-7.345-7.085-7.67-7.085-.65 0-11.96 11.31-11.96 11.96 0 .715 34.32 34.84 35.035 34.84 1.105 0 34.515-33.735 34.515-34.84 0-1.17-10.27-11.96-11.375-11.96-.325 0-3.77 3.185-7.605 7.085l-7.02 7.085v-70.07H307v35.035z" />
    </g>
    <path d="M284 384a8 8 0 0 0-8 8v64a8 8 0 0 0 8 8 40 40 0 0 0 0-80zm8 62.629v-45.258a24 24 0 0 1 0 45.258zm-44.162-62.415a8 8 0 0 0-8.993 4.208L222 422.111l-16.845-33.689A8 8 0 0 0 190 392v64a8 8 0 0 0 16 0v-30.111l8.845 17.689a8 8 0 0 0 14.31 0L238 425.889V456a8 8 0 0 0 16 0v-64a8 8 0 0 0-6.162-7.786z" fill="#fff" />
</svg>