<svg height="512" viewBox="0 0 512 512" width="512" xmlns="http://www.w3.org/2000/svg">
    <path d="M392 488H120a48 48 0 0 1-48-48V72a48 48 0 0 1 48-48h224l96 96v320a48 48 0 0 1-48 48z" fill="#cfd2fc" />
    <path d="M72 360h368v80a48 48 0 0 1-48 48H120a48 48 0 0 1-48-48v-80z" fill="#5153ff" />
    <path d="M440 120h-48a48 48 0 0 1-48-48V24zM143.6 150.65c-3.4 1.61-7.2 5.06-8.4 7.82-3 6.21-3 146.05 0 152.49 5 10.58 9 11.04 116.8 11.04s111.8-.46 116.8-11.04c3-6.44 3-146.28 0-152.72-5-10.58-9-11.04-117.2-11.04-81.8.23-102.8.69-108 3.45zm55.6 55.2c7 10.81 13.2 18.86 14 17.71.6-.92 6.4-9.66 12.6-19.55l11.4-17.71H257l-.4 47.61-.6 47.84-9.4.69-9.4.69-.6-30.59-.6-30.59-11.6 17.71c-6.2 9.89-11.8 17.94-12.4 17.94-.4 0-6.2-8.05-12.4-17.71L188 222.18l-1 29.9-1 29.67-9.4.69-9.6.69V186.3h19.6l12.6 19.55zm123.4 5.06.6 23.46 11.6.69 11.8.69-16 21.85c-9 11.96-17.2 22.08-18.4 22.31s-9.6-9.66-18.6-21.85l-16.4-22.31 12-.69 11.8-.69v-22.54c0-12.42.6-23.23 1.4-24.15s5.6-1.38 10.6-.92l9 .69.6 23.46z" fill="#8690fa" />
    <path d="M284 384a8 8 0 0 0-8 8v64a8 8 0 0 0 8 8 40 40 0 0 0 0-80zm8 62.629v-45.258a24 24 0 0 1 0 45.258zm-44.162-62.415a8 8 0 0 0-8.993 4.208L222 422.111l-16.845-33.689A8 8 0 0 0 190 392v64a8 8 0 0 0 16 0v-30.111l8.845 17.689a8 8 0 0 0 14.31 0L238 425.889V456a8 8 0 0 0 16 0v-64a8 8 0 0 0-6.162-7.786z" fill="#fff" />
</svg>