<svg id="Flat" height="512" viewBox="0 0 512 512" width="512" xmlns="http://www.w3.org/2000/svg"><path d="m392 488h-272a48 48 0 0 1 -48-48v-368a48 48 0 0 1 48-48h224l96 96v320a48 48 0 0 1 -48 48z" fill="#cfd2fc"/><path d="m72 360h368a0 0 0 0 1 0 0v80a48 48 0 0 1 -48 48h-272a48 48 0 0 1 -48-48v-80a0 0 0 0 1 0 0z" fill="#5153ff"/><path d="m440 120h-48a48 48 0 0 1 -48-48v-48z" fill="#8690fa"/><g fill="#fff"><path d="m216 384a7.976 7.976 0 0 0 -5.661 2.347l-18.339 18.34-18.343-18.344a8 8 0 0 0 -13.657 5.657v64a8 8 0 0 0 16 0v-44.687l10.343 10.344a8 8 0 0 0 11.314 0l10.343-10.344v44.687a8 8 0 0 0 16 0v-64a8 8 0 0 0 -8-8z"/><path d="m264 384h-16a8 8 0 0 0 -8 8v64a8 8 0 0 0 16 0v-24h8a24 24 0 0 0 0-48zm0 32h-8v-16h8a8 8 0 0 1 0 16z"/><path d="m328 384h-16a8 8 0 0 0 0 16h16a8 8 0 0 1 0 16h-16a8 8 0 0 0 0 16h16a8 8 0 0 1 0 16h-16a8 8 0 0 0 0 16h16a23.984 23.984 0 0 0 17.869-40 23.984 23.984 0 0 0 -17.869-40z"/><path d="m208 144v32l112-16v-32z"/></g><path d="m325.242 121.957a8.01 8.01 0 0 0 -6.375-1.875l-112 16a8 8 0 0 0 -6.867 7.918v92.289a32 32 0 1 0 16 27.711v-81.063l96-13.714v51.066a32 32 0 1 0 16 27.711v-120a8 8 0 0 0 -2.758-6.043zm-109.242 44.82v-15.839l96-13.715v15.84z" fill="#8690fa"/></svg>