<svg id="Flat" height="512" viewBox="0 0 512 512" width="512" xmlns="http://www.w3.org/2000/svg"><path d="m392 488h-272a48 48 0 0 1 -48-48v-368a48 48 0 0 1 48-48h224l96 96v320a48 48 0 0 1 -48 48z" fill="#cfd2fc"/><path d="m72 360h368a0 0 0 0 1 0 0v80a48 48 0 0 1 -48 48h-272a48 48 0 0 1 -48-48v-80a0 0 0 0 1 0 0z" fill="#5153ff"/><g fill="#8690fa"><path d="m440 120h-48a48 48 0 0 1 -48-48v-48z"/><path d="m248 288h-8v-128h48v8a8 8 0 0 0 16 0v-16a8 8 0 0 0 -8-8h-128a8 8 0 0 0 -8 8v16a8 8 0 0 0 16 0v-8h48v128h-8a8 8 0 0 0 0 16h32a8 8 0 0 0 0-16z"/><path d="m344 264a8 8 0 0 0 -8 8 16 16 0 0 1 -32 0v-40h16a8 8 0 0 0 0-16h-16v-16a8 8 0 0 0 -16 0v16h-16a8 8 0 0 0 0 16h16v40a32 32 0 0 0 64 0 8 8 0 0 0 -8-8z"/></g><path d="m192 384c-17.645 0-32 17.944-32 40s14.355 40 32 40 32-17.944 32-40-14.355-40-32-40zm0 64c-8.673 0-16-10.991-16-24s7.327-24 16-24 16 10.991 16 24-7.327 24-16 24z" fill="#fff"/><path d="m344 384h-32a8 8 0 0 0 -8 8v64a8 8 0 0 0 16 0v-24h8a8 8 0 0 0 0-16h-8v-16h24a8 8 0 0 0 0-16z" fill="#fff"/><path d="m280 384h-32a8 8 0 0 0 0 16h8v56a8 8 0 0 0 16 0v-56h8a8 8 0 0 0 0-16z" fill="#fff"/></svg>