<svg id="Flat" height="512" viewBox="0 0 512 512" width="512" xmlns="http://www.w3.org/2000/svg">
    <path d="m392 488h-272a48 48 0 0 1 -48-48v-368a48 48 0 0 1 48-48h224l96 96v320a48 48 0 0 1 -48 48z" fill="#cfd2fc" />
    <path d="m72 360h368a0 0 0 0 1 0 0v80a48 48 0 0 1 -48 48h-272a48 48 0 0 1 -48-48v-80a0 0 0 0 1 0 0z" fill="#5153ff" />
    <path d="m440 120h-48a48 48 0 0 1 -48-48v-48z" fill="#8690fa" />

    <g transform="translate(117.000000,350.000000) scale(0.125556,-0.125556)" fill="#8690fa" stroke="none">
        <path d="M1041 2103 c-14 -3 -51 -33 -83 -66 -58 -61 -60 -62 -111 -61 -29 1
-73 5 -99 9 -38 6 -55 3 -92 -15 -64 -30 -87 -67 -96 -152 -10 -87 -30 -117
-96 -141 -130 -47 -170 -177 -89 -287 34 -46 34 -104 0 -150 -36 -48 -48 -94
-40 -148 5 -37 15 -55 49 -87 23 -22 61 -47 85 -55 61 -21 84 -55 92 -140 8
-88 37 -130 110 -158 l50 -18 0 -215 c-1 -313 0 -314 224 -216 141 61 151 65
180 52 16 -7 77 -34 135 -60 131 -59 152 -63 179 -36 20 20 21 31 21 250 l0
229 31 6 c81 16 139 89 139 177 0 66 28 103 103 137 70 32 102 65 117 123 14
52 4 99 -32 154 -38 57 -39 102 -5 154 60 90 55 177 -12 241 -20 19 -57 42
-81 50 -58 20 -90 66 -90 128 0 60 -31 121 -77 152 -39 27 -79 30 -196 15
l-58 -8 -52 56 c-71 76 -121 96 -206 80z m218 -321 c30 -12 81 -37 112 -57 33
-20 64 -33 73 -29 21 8 65 -41 59 -66 -3 -10 11 -51 31 -92 96 -195 64 -409
-84 -562 -98 -102 -223 -156 -360 -156 -87 1 -141 14 -224 56 -38 20 -77 33
-88 31 -10 -3 -21 -1 -24 5 -3 5 -12 7 -20 4 -8 -3 -11 0 -7 10 3 7 0 14 -7
14 -7 0 -9 8 -5 20 5 14 -4 37 -29 74 -19 29 -45 77 -57 107 -26 67 -36 203
-20 279 37 172 176 321 346 372 81 24 228 19 304 -10z m-327 -1163 l28 -33 0
-157 0 -156 -82 -36 c-46 -21 -86 -37 -90 -37 -5 0 -8 101 -8 224 0 170 3 226
13 230 6 3 34 4 62 2 42 -3 54 -9 77 -37z m456 35 c22 -6 22 -7 22 -225 0
-123 -4 -220 -9 -224 -5 -3 -45 10 -88 29 l-78 35 -3 161 -3 161 35 35 c35 35
69 42 124 28z m-220 -239 c-3 -93 -5 -109 -18 -105 -8 3 -41 4 -72 4 l-58 -2
0 107 0 107 75 0 76 0 -3 -111z" />
        <path fill="#5153ff" d="M773 1460 c-36 -22 -50 -60 -37 -99 6 -19 29 -36 79 -61 75 -38 84
-49 60 -74 -22 -22 -61 -20 -96 5 -35 25 -62 19 -57 -13 5 -34 87 -72 134 -63
42 7 80 42 90 80 10 39 -21 75 -94 110 -50 23 -62 34 -60 50 4 26 47 31 88 10
25 -13 35 -14 46 -4 24 20 15 39 -28 59 -55 25 -85 25 -125 0z" />
        <path fill="#5153ff" d="M1080 1473 c-36 -14 -60 -47 -60 -83 0 -44 16 -60 93 -94 39 -18 57
-31 57 -44 0 -46 -49 -54 -110 -20 -32 19 -42 20 -52 10 -30 -30 43 -87 112
-87 64 0 110 40 110 95 0 44 -25 71 -90 96 -62 23 -77 38 -60 58 15 19 57 20
89 2 49 -27 73 19 26 50 -26 17 -91 27 -115 17z" />
        <path fill="#5153ff" d="M1320 1461 c-13 -25 -12 -268 1 -293 13 -24 120 -26 139 -3 19 23 -5
45 -51 45 l-38 0 -3 132 c-3 115 -5 133 -20 136 -9 2 -22 -6 -28 -17z" />
    </g>

    <g fill="#fff">
        <path d="m186 384h-16a8 8 0 0 0 -8 8v64a8 8 0 0 0 16 0v-24h8a24 24 0 0 0 0-48zm0 32h-8v-16h8a8 8 0 0 1 0 16z" />
        <path d="m266 400a8 8 0 0 0 0-16h-32a8 8 0 0 0 -8 8v64a8 8 0 0 0 8 8h32a8 8 0 0 0 0-16h-24v-16h8a8 8 0 0 0 0-16h-8v-16z" />
        <path d="m347.838 384.214a8 8 0 0 0 -8.993 4.208l-16.845 33.689-16.845-33.689a8 8 0 0 0 -15.155 3.578v64a8 8 0 0 0 16 0v-30.111l8.845 17.689a8 8 0 0 0 14.31 0l8.845-17.689v30.111a8 8 0 0 0 16 0v-64a8 8 0 0 0 -6.162-7.786z" />

    </g>
</svg>