<svg height="512" viewBox="0 0 512 512" width="512" xmlns="http://www.w3.org/2000/svg">
    <path d="M392 488H120a48 48 0 0 1-48-48V72a48 48 0 0 1 48-48h224l96 96v320a48 48 0 0 1-48 48z" fill="#cfd2fc" />
    <path d="M72 360h368v80a48 48 0 0 1-48 48H120a48 48 0 0 1-48-48v-80z" fill="#5153ff" />
    <path d="M440 120h-48a48 48 0 0 1-48-48V24z" fill="#8690fa" />
    <path fill="#1181f1" d="M242.555 70.044c-12.98.8-25.082 3.441-34.773 7.594-12.992 5.563-21.107 13.424-22.555 21.844-.178 1.054-.203 2.883-.203 15.088v13.881h65.024v6.477l-50.127.025-50.14.038-1.46.394c-5.918 1.626-11.049 5.868-15.66 12.954-7.111 10.948-11.543 26.746-12.547 44.755-.19 3.442-.076 13.856.19 16.891 1.233 14.02 4.116 25.527 8.79 35.154 2.73 5.638 5.422 9.588 8.876 13.042 3.328 3.328 6.528 5.284 10.351 6.325l1.46.406 14.364.039 14.364.038.076-5.563c.356-24.066 3.302-38.595 9.677-47.727 5.957-8.534 14.885-12.776 29.845-14.21 6.11-.585 10.465-.7 28.385-.776 19.748-.088 25.603-.228 31.877-.762 14.148-1.219 22.276-4.495 27.368-11.049 4.84-6.223 7.532-15.786 8.687-30.86.546-7.15.584-8.929.584-32.068V99.812l-.342-1.371c-2.439-9.563-12.662-17.844-28.677-23.19-7.734-2.591-16.32-4.23-26.67-5.106-2.083-.178-14.402-.254-16.764-.101zm-25.4 20.7c2.49.61 4.851 2.096 6.413 4.04 4.992 6.197 2.896 15.24-4.292 18.554-3.29 1.511-6.934 1.46-10.186-.114-3.238-1.588-5.422-4.204-6.438-7.71-.254-.863-.292-1.295-.292-3.098 0-2.337.177-3.238 1.003-5.016 1.727-3.734 5.27-6.338 9.41-6.922 1.118-.165 3.15-.038 4.382.267z" />
    <path fill="#8690fa" d="M321.51 140.414c-.355 23.165-3.098 37.16-9.08 46.267-6.553 9.982-16.522 14.477-35.14 15.874-6.414.47-17.006.686-35.306.699-9.564 0-14.644.102-19.177.381-11.532.711-18.923 2.692-24.042 6.452-7.34 5.372-11.303 15.557-12.915 33.172-.686 7.582-.826 13.462-.826 36.335 0 21.602-.038 20.65.775 23.165 1.702 5.232 5.854 10.07 12.306 14.338 2.49 1.65 3.696 2.324 6.756 3.81 10.427 5.054 23.495 8.128 38.126 8.966 2.87.165 11.277.165 14.11 0 14.986-.864 28.397-4.077 38.849-9.296 5.207-2.604 9.042-5.258 12.331-8.548 3.328-3.327 5.284-6.527 6.325-10.35l.406-1.46.039-14.39.038-14.376h-65.037v-6.477h49.632c54.787 0 50.571.064 53.174-.775 5.233-1.702 10.084-5.854 14.339-12.306 1.625-2.451 2.21-3.492 3.683-6.464 4.292-8.7 7.328-20.016 8.572-31.954.521-4.965.584-6.451.584-13.525s-.063-8.56-.584-13.525c-1.41-13.5-5.118-26.175-10.376-35.433-.94-1.651-3.098-4.852-4.241-6.287-4.306-5.385-9.284-8.712-14.313-9.576-1.054-.178-2.883-.203-15.063-.203h-13.868l-.076 5.486zm-32.854 145.403c1.308.305 3.34 1.257 4.407 2.07 1.6 1.219 3.073 3.111 3.848 4.99 1.181 2.82 1.181 6.402 0 9.221-2.032 4.877-7.15 7.912-12.344 7.34a12.023 12.023 0 0 1-10.008-16.154c1.486-4.076 5.296-7.124 9.652-7.734 1.168-.152 3.175-.038 4.445.267z" />
    <path d="M122.997 325.123h-.203a.102.102 0 0 1-.102-.101v-.813a.102.102 0 0 1 .204 0v.305h.101a.305.305 0 0 1 0 .61zm0-.406h-.101v.203h.101a.102.102 0 0 0 0-.203z" />
    <text textLength="138.2" stroke-width="3" stroke="#fff" font-size="101.1" x="192.4" y="459" fill="#FFF" font-weight="bold">
        PY
    </text>
</svg>