<svg id="Flat" height="512" viewBox="0 0 512 512" width="512" xmlns="http://www.w3.org/2000/svg">
    <path d="m392 488h-272a48 48 0 0 1 -48-48v-368a48 48 0 0 1 48-48h224l96 96v320a48 48 0 0 1 -48 48z" fill="#cfd2fc" />
    <path d="m72 360h368a0 0 0 0 1 0 0v80a48 48 0 0 1 -48 48h-272a48 48 0 0 1 -48-48v-80a0 0 0 0 1 0 0z" fill="#5153ff" />
    <path d="m440 120h-48a48 48 0 0 1 -48-48v-48z" fill="#8690fa" />
    <g transform="translate(139.000000,340.000000) scale(0.045550,-0.045550)" fill="#8690fa" stroke="none">
        <path d="M2075 4948 c-355 -20 -807 -76 -930 -114 -452 -143 -819 -553 -890
-998 -97 -604 -120 -1405 -59 -2061 29 -321 63 -544 99 -652 130 -392 441
-703 831 -832 142 -47 560 -99 984 -122 613 -33 1598 28 1875 118 349 112 635
365 790 697 62 132 81 204 109 403 87 626 102 1355 40 2003 -24 258 -63 514
-90 596 -129 397 -443 711 -842 844 -133 44 -552 95 -976 120 -207 12 -723 11
-941 -2z m-509 -1323 c27 -8 97 -47 156 -87 268 -183 495 -409 683 -681 144
-210 139 -318 -27 -551 -146 -204 -322 -389 -514 -542 -264 -210 -365 -244
-531 -182 -69 25 -146 100 -181 175 -53 113 -31 262 52 360 15 18 71 62 124
99 53 37 133 97 177 134 83 70 235 229 235 247 0 16 -126 149 -216 227 -44 39
-131 107 -192 150 -115 81 -145 115 -183 201 -27 62 -30 160 -6 230 60 173
249 272 423 220z m2275 -1573 c97 -39 149 -112 149 -212 0 -104 -56 -180 -162
-216 -49 -18 -91 -19 -548 -19 -457 0 -499 1 -548 19 -106 36 -162 112 -162
216 0 126 80 208 225 230 28 5 262 7 520 6 460 -1 471 -2 526 -24z" />

    </g>
    <text textLength="160" stroke-width="6" stroke="#fff" font-size="109.1" x="177.4" y="459" fill="#FFF" font-weight="bold">
        SH
</text>
</svg>
