<svg id="Flat" height="512" viewBox="0 0 512 512" width="512" xmlns="http://www.w3.org/2000/svg"><path d="m392 488h-272a48 48 0 0 1 -48-48v-368a48 48 0 0 1 48-48h224l96 96v320a48 48 0 0 1 -48 48z" fill="#cfd2fc"/><path d="m160 152h192v144h-192z" fill="#8690fa"/><path d="m160 152h192v32h-192z" fill="#fff"/><path d="m72 360h368a0 0 0 0 1 0 0v80a48 48 0 0 1 -48 48h-272a48 48 0 0 1 -48-48v-80a0 0 0 0 1 0 0z" fill="#5153ff"/><path d="m440 120h-48a48 48 0 0 1 -48-48v-48z" fill="#8690fa"/><g fill="#b5bafc"><path d="m240.95 184h-17.89l-16-32h17.89z"/><path d="m207.995 184h-17.89l-16-32h17.89z"/><path d="m272.94 184h-17.89l-15.99-32h17.89z"/><path d="m304.94 184h-17.88l-16-32h17.88z"/><path d="m336.95 184h-17.89l-16-32h17.89z"/></g><path d="m312 272h-112a8 8 0 0 1 0-16h112a8 8 0 0 1 0 16z" fill="#fff"/><path d="m192 400h16a8 8 0 0 0 0-16h-16a24 24 0 0 0 0 48 8 8 0 0 1 0 16h-16a8 8 0 0 0 0 16h16a24 24 0 0 0 0-48 8 8 0 0 1 0-16z" fill="#fff"/><path d="m259.106 431.792a24 24 0 0 0 -3.106-47.792h-16a8 8 0 0 0 -8 8v64a8 8 0 0 0 16 0v-12.686l18.343 18.343a8 8 0 0 0 11.314-11.314zm-11.106-31.792h8a8 8 0 0 1 0 16h-8z" fill="#fff"/><path d="m336 384h-32a8 8 0 0 0 0 16h8v56h.007a7.993 7.993 0 1 0 15.986 0h.007v-56h8a8 8 0 0 0 0-16z" fill="#fff"/></svg>