<svg id="Flat" height="512" viewBox="0 0 512 512" width="512" xmlns="http://www.w3.org/2000/svg"><path d="m392 488h-272a48 48 0 0 1 -48-48v-368a48 48 0 0 1 48-48h224l96 96v320a48 48 0 0 1 -48 48z" fill="#cfd2fc"/><path d="m72 360h368a0 0 0 0 1 0 0v80a48 48 0 0 1 -48 48h-272a48 48 0 0 1 -48-48v-80a0 0 0 0 1 0 0z" fill="#5153ff"/><g fill="#8690fa"><path d="m440 120h-48a48 48 0 0 1 -48-48v-48z"/><path d="m376 208h-240a8 8 0 0 1 0-16h240a8 8 0 0 1 0 16z"/><path d="m376 240h-240a8 8 0 0 1 0-16h240a8 8 0 0 1 0 16z"/><path d="m376 272h-240a8 8 0 0 1 0-16h240a8 8 0 0 1 0 16z"/><path d="m376 176h-240a8 8 0 0 1 0-16h240a8 8 0 0 1 0 16z"/><path d="m328 304h-192a8 8 0 0 1 0-16h192a8 8 0 0 1 0 16z"/><path d="m208 144h-72a8 8 0 0 1 0-16h72a8 8 0 0 1 0 16z"/></g><path d="m208 384h-32a8 8 0 0 0 0 16h8v56a8 8 0 0 0 16 0v-56h8a8 8 0 0 0 0-16z" fill="#fff"/><path d="m336 384h-32a8 8 0 0 0 0 16h8v56a8 8 0 0 0 16 0v-56h8a8 8 0 0 0 0-16z" fill="#fff"/><path d="m275.578 384.845a8 8 0 0 0 -10.733 3.577l-8.845 17.69-8.845-17.69a8 8 0 0 0 -14.31 7.156l14.211 28.422-14.211 28.422a8 8 0 1 0 14.31 7.156l8.845-17.69 8.845 17.69a8 8 0 1 0 14.31-7.156l-14.211-28.422 14.211-28.422a8 8 0 0 0 -3.577-10.733z" fill="#fff"/></svg>