<svg id="Flat" height="512" viewBox="0 0 512 512" width="512" xmlns="http://www.w3.org/2000/svg"><path d="m392 488h-272a48 48 0 0 1 -48-48v-368a48 48 0 0 1 48-48h224l96 96v320a48 48 0 0 1 -48 48z" fill="#cfd2fc"/><path d="m72 360h368a0 0 0 0 1 0 0v80a48 48 0 0 1 -48 48h-272a48 48 0 0 1 -48-48v-80a0 0 0 0 1 0 0z" fill="#5153ff"/><g fill="#8690fa"><path d="m440 120h-48a48 48 0 0 1 -48-48v-48z"/><path d="m192 304a8 8 0 0 1 -8-8v-144a8 8 0 0 1 16 0v144a8 8 0 0 1 -8 8z"/><path d="m256 256a8 8 0 0 1 -8-8v-48a8 8 0 0 1 16 0v48a8 8 0 0 1 -8 8z"/></g><path d="m160 272a8 8 0 0 1 -8-8v-80a8 8 0 0 1 16 0v80a8 8 0 0 1 -8 8z" fill="#5153ff"/><path d="m224 272a8 8 0 0 1 -8-8v-80a8 8 0 0 1 16 0v80a8 8 0 0 1 -8 8z" fill="#5153ff"/><path d="m320 304a8 8 0 0 1 -8-8v-144a8 8 0 0 1 16 0v144a8 8 0 0 1 -8 8z" fill="#8690fa"/><path d="m352 272a8 8 0 0 1 -8-8v-80a8 8 0 0 1 16 0v80a8 8 0 0 1 -8 8z" fill="#5153ff"/><path d="m288 272a8 8 0 0 1 -8-8v-80a8 8 0 0 1 16 0v80a8 8 0 0 1 -8 8z" fill="#5153ff"/><path d="m128 240a8 8 0 0 1 -8-8v-16a8 8 0 0 1 16 0v16a8 8 0 0 1 -8 8z" fill="#8690fa"/><path d="m384 240a8 8 0 0 1 -8-8v-16a8 8 0 0 1 16 0v16a8 8 0 0 1 -8 8z" fill="#8690fa"/><path d="m353.94 384.239a8 8 0 0 0 -9.7 5.821l-8.24 32.956-8.239-32.956a8 8 0 1 0 -15.522 3.88l16 64a8 8 0 0 0 15.522 0l16-64a8 8 0 0 0 -5.821-9.701z" fill="#fff"/><path d="m271.491 389.191a8 8 0 0 0 -14.982 0l-24 64a8 8 0 0 0 14.982 5.618l4.053-10.809h24.912l4.053 10.809a8 8 0 0 0 14.982-5.618zm-13.947 42.809 6.456-17.216 6.456 17.216z" fill="#fff"/><path d="m208.992 384.062a8 8 0 0 0 -8.93 6.946l-3.625 29-4.848-14.541a8 8 0 0 0 -15.178 0l-4.848 14.541-3.625-29a8 8 0 1 0 -15.876 1.984l8 64a8 8 0 0 0 15.527 1.538l8.411-25.23 8.411 25.232a8 8 0 0 0 7.589 5.468q.394 0 .793-.039a8 8 0 0 0 7.15-6.969l8-64a8 8 0 0 0 -6.951-8.93z" fill="#fff"/></svg>