<svg id="Flat" height="512" viewBox="0 0 512 512" width="512" xmlns="http://www.w3.org/2000/svg"><path d="m392 488h-272a48 48 0 0 1 -48-48v-368a48 48 0 0 1 48-48h224l96 96v320a48 48 0 0 1 -48 48z" fill="#cfd2fc"/><path d="m72 360h368a0 0 0 0 1 0 0v80a48 48 0 0 1 -48 48h-272a48 48 0 0 1 -48-48v-80a0 0 0 0 1 0 0z" fill="#5153ff"/><g fill="#8690fa"><path d="m440 120h-48a48 48 0 0 1 -48-48v-48z"/><path d="m192 272a7.974 7.974 0 0 1 -5.657-2.343l-48-48a8 8 0 0 1 0-11.314l48-48a8 8 0 0 1 11.314 11.314l-42.344 42.343 42.344 42.343a8 8 0 0 1 -5.657 13.657z"/><path d="m320 272a8 8 0 0 1 -5.657-13.657l42.344-42.343-42.344-42.343a8 8 0 0 1 11.314-11.314l48 48a8 8 0 0 1 0 11.314l-48 48a7.974 7.974 0 0 1 -5.657 2.343z"/><circle cx="256" cy="216" r="8"/><circle cx="288" cy="216" r="8"/><circle cx="224" cy="216" r="8"/></g><path d="m344 448h-24v-56a8 8 0 0 0 -16 0v64a8 8 0 0 0 8 8h32a8 8 0 0 0 0-16z" fill="#fff"/><path d="m203.578 384.845a8 8 0 0 0 -10.733 3.577l-8.845 17.69-8.845-17.69a8 8 0 0 0 -14.31 7.156l14.211 28.422-14.211 28.422a8 8 0 1 0 14.31 7.156l8.845-17.69 8.845 17.69a8 8 0 1 0 14.31-7.156l-14.211-28.422 14.211-28.422a8 8 0 0 0 -3.577-10.733z" fill="#fff"/><path d="m281.608 384.164a7.993 7.993 0 0 0 -8.962 4.685l-16.646 38.842-16.646-38.842a8 8 0 0 0 -15.354 3.151v64a8 8 0 0 0 16 0v-25.024l8.646 20.175a8 8 0 0 0 14.708 0l8.646-20.175v25.024a8 8 0 0 0 16 0v-64a8 8 0 0 0 -6.392-7.836z" fill="#fff"/></svg>