<svg id="Flat" height="512" viewBox="0 0 512 512" width="512" xmlns="http://www.w3.org/2000/svg"><path d="m392 488h-272a48 48 0 0 1 -48-48v-368a48 48 0 0 1 48-48h224l96 96v320a48 48 0 0 1 -48 48z" fill="#cfd2fc"/><path d="m160 24h48v224h-48z" fill="#fff"/><path d="m176 24h16v240h-16z" fill="#5153ff"/><path d="m72 360h368a0 0 0 0 1 0 0v80a48 48 0 0 1 -48 48h-272a48 48 0 0 1 -48-48v-80a0 0 0 0 1 0 0z" fill="#5153ff"/><g fill="#8690fa"><path d="m440 120h-48a48 48 0 0 1 -48-48v-48z"/><path d="m208 64h-48a8 8 0 0 1 0-16h48a8 8 0 0 1 0 16z"/><path d="m208 96h-48a8 8 0 0 1 0-16h48a8 8 0 0 1 0 16z"/><path d="m208 128h-48a8 8 0 0 1 0-16h48a8 8 0 0 1 0 16z"/><path d="m208 160h-48a8 8 0 0 1 0-16h48a8 8 0 0 1 0 16z"/><path d="m208 192h-48a8 8 0 0 1 0-16h48a8 8 0 0 1 0 16z"/><path d="m208 224h-48a8 8 0 0 1 0-16h48a8 8 0 0 1 0 16z"/><path d="m198.12 272.479-6.12-24.479h-16l-6.12 24.479a16 16 0 1 0 28.24 0z"/></g><path d="m272 400a8 8 0 0 0 0-16h-32a8 8 0 0 0 0 16h8v48h-8a8 8 0 0 0 0 16h32a8 8 0 0 0 0-16h-8v-48z" fill="#fff"/><path d="m320 384h-16a8 8 0 0 0 -8 8v64a8 8 0 0 0 16 0v-24h8a24 24 0 0 0 0-48zm0 32h-8v-16h8a8 8 0 0 1 0 16z" fill="#fff"/><path d="m208 448h-19.056l26.211-52.422a8 8 0 0 0 -7.155-11.578h-32a8 8 0 0 0 0 16h19.056l-26.211 52.422a8 8 0 0 0 7.155 11.578h32a8 8 0 0 0 0-16z" fill="#fff"/></svg>